<svg width="512" height="512" viewBox="0 0 512 512" fill="none" xmlns="http://www.w3.org/2000/svg">
<path d="M473.655 88.276H38.345C17.167 88.276 0 105.443 0 126.621V385.38C0 406.557 17.167 423.725 38.345 423.725H473.655C494.832 423.725 512 406.558 512 385.38V126.621C512 105.443 494.833 88.276 473.655 88.276Z" fill="#ECEFF4"/>
<path d="M2.10899 114.08H509.89C504.694 99.063 490.438 88.276 473.655 88.276H38.345C21.561 88.276 7.30599 99.063 2.10899 114.08Z" fill="#BF616A"/>
<path d="M512 191.49H0V217.293H512V191.49Z" fill="#BF616A"/>
<path d="M512 139.88H0V165.683H512V139.88Z" fill="#BF616A"/>
<path d="M0 260.074C0 264.949 3.953 268.902 8.828 268.902H512V243.098H0V260.074Z" fill="#BF616A"/>
<path d="M512 346.32H0V372.124H512V346.32Z" fill="#BF616A"/>
<path d="M509.891 397.92H2.10899C7.30599 412.937 21.562 423.724 38.345 423.724H473.655C490.439 423.724 504.694 412.937 509.891 397.92Z" fill="#BF616A"/>
<path d="M512 294.71H0V320.513H512V294.71Z" fill="#BF616A"/>
<path d="M8.828 268.902H229.518C234.393 268.902 238.346 264.949 238.346 260.074V97.103C238.346 92.227 234.393 88.275 229.518 88.275H38.345C17.167 88.276 0 105.443 0 126.621V260.074C0 264.95 3.953 268.902 8.828 268.902Z" fill="#5E81AC"/>
<path d="M24.789 108.537L26.743 114.397L32.92 114.444C33.72 114.451 34.051 115.471 33.408 115.946L28.439 119.615L30.303 125.504C30.545 126.266 29.676 126.898 29.025 126.432L24 122.841L18.975 126.433C18.324 126.899 17.457 126.267 17.697 125.505L19.561 119.616L14.592 115.947C13.949 115.471 14.28 114.451 15.08 114.445L21.257 114.398L23.211 108.538C23.463 107.778 24.535 107.778 24.789 108.537Z" fill="#ECEFF4"/>
<path d="M24.789 139.191L26.743 145.051L32.92 145.098C33.72 145.105 34.051 146.124 33.408 146.6L28.439 150.27L30.303 156.159C30.545 156.921 29.676 157.553 29.025 157.087L24 153.496L18.975 157.088C18.324 157.553 17.457 156.922 17.697 156.16L19.561 150.271L14.592 146.601C13.949 146.125 14.28 145.106 15.08 145.099L21.257 145.052L23.211 139.192C23.463 138.433 24.535 138.433 24.789 139.191Z" fill="#ECEFF4"/>
<path d="M24.789 169.846L26.743 175.706L32.92 175.753C33.72 175.76 34.051 176.779 33.408 177.255L28.439 180.925L30.303 186.814C30.545 187.576 29.676 188.208 29.025 187.742L24 184.151L18.975 187.743C18.324 188.208 17.457 187.578 17.697 186.815L19.561 180.926L14.592 177.256C13.949 176.78 14.28 175.761 15.08 175.754L21.257 175.707L23.211 169.847C23.463 169.087 24.535 169.087 24.789 169.846Z" fill="#ECEFF4"/>
<path d="M24.789 200.5L26.743 206.36L32.92 206.407C33.72 206.414 34.051 207.434 33.408 207.909L28.439 211.579L30.303 217.468C30.545 218.23 29.676 218.862 29.025 218.396L24 214.805L18.975 218.397C18.324 218.862 17.457 218.231 17.697 217.469L19.561 211.58L14.592 207.91C13.949 207.436 14.28 206.415 15.08 206.408L21.257 206.361L23.211 200.501C23.463 199.741 24.535 199.741 24.789 200.5Z" fill="#ECEFF4"/>
<path d="M24.789 231.154L26.743 237.014L32.92 237.061C33.72 237.068 34.051 238.087 33.408 238.563L28.439 242.233L30.303 248.122C30.545 248.884 29.676 249.516 29.025 249.05L24 245.459L18.975 249.051C18.324 249.516 17.457 248.885 17.697 248.123L19.561 242.234L14.592 238.564C13.949 238.088 14.28 237.069 15.08 237.062L21.257 237.015L23.211 231.155C23.463 230.396 24.535 230.396 24.789 231.154Z" fill="#ECEFF4"/>
<path d="M48.582 123.566L50.536 129.426L56.713 129.473C57.513 129.48 57.844 130.5 57.201 130.975L52.232 134.645L54.096 140.534C54.338 141.296 53.469 141.928 52.818 141.462L47.793 137.87L42.768 141.462C42.117 141.927 41.25 141.296 41.49 140.534L43.354 134.645L38.385 130.975C37.742 130.499 38.073 129.48 38.873 129.473L45.05 129.426L47.004 123.566C47.256 122.808 48.329 122.808 48.582 123.566Z" fill="#ECEFF4"/>
<path d="M48.582 154.221L50.536 160.081L56.713 160.128C57.513 160.135 57.844 161.155 57.201 161.63L52.232 165.3L54.096 171.189C54.338 171.951 53.469 172.583 52.818 172.117L47.793 168.525L42.768 172.117C42.117 172.582 41.25 171.952 41.49 171.189L43.354 165.3L38.385 161.63C37.742 161.156 38.073 160.135 38.873 160.128L45.05 160.081L47.004 154.221C47.256 153.462 48.329 153.462 48.582 154.221Z" fill="#ECEFF4"/>
<path d="M48.582 184.875L50.536 190.735L56.713 190.782C57.513 190.789 57.844 191.808 57.201 192.284L52.232 195.954L54.096 201.843C54.338 202.605 53.469 203.237 52.818 202.771L47.793 199.179L42.768 202.771C42.117 203.236 41.25 202.605 41.49 201.843L43.354 195.954L38.385 192.284C37.742 191.808 38.073 190.789 38.873 190.782L45.05 190.735L47.004 184.875C47.256 184.116 48.329 184.116 48.582 184.875Z" fill="#ECEFF4"/>
<path d="M48.582 215.529L50.536 221.389L56.713 221.436C57.513 221.443 57.844 222.462 57.201 222.938L52.232 226.608L54.096 232.497C54.338 233.259 53.469 233.891 52.818 233.425L47.793 229.833L42.768 233.425C42.117 233.891 41.25 233.259 41.49 232.497L43.354 226.608L38.385 222.938C37.742 222.462 38.073 221.443 38.873 221.436L45.05 221.389L47.004 215.529C47.256 214.771 48.329 214.771 48.582 215.529Z" fill="#ECEFF4"/>
<path d="M72.375 108.537L74.329 114.397L80.506 114.444C81.306 114.451 81.637 115.471 80.994 115.946L76.025 119.615L77.889 125.504C78.131 126.266 77.262 126.898 76.611 126.432L71.586 122.84L66.561 126.432C65.91 126.898 65.043 126.266 65.283 125.504L67.147 119.615L62.178 115.946C61.535 115.47 61.866 114.45 62.666 114.444L68.843 114.397L70.797 108.537C71.049 107.778 72.122 107.778 72.375 108.537Z" fill="#ECEFF4"/>
<path d="M72.375 139.191L74.329 145.051L80.506 145.098C81.306 145.105 81.637 146.124 80.994 146.6L76.025 150.27L77.889 156.159C78.131 156.921 77.262 157.553 76.611 157.087L71.586 153.495L66.561 157.087C65.91 157.552 65.043 156.921 65.283 156.159L67.147 150.27L62.178 146.6C61.535 146.124 61.866 145.105 62.666 145.098L68.843 145.051L70.797 139.191C71.049 138.433 72.122 138.433 72.375 139.191Z" fill="#ECEFF4"/>
<path d="M72.375 169.846L74.329 175.706L80.506 175.753C81.306 175.76 81.637 176.779 80.994 177.255L76.025 180.925L77.889 186.814C78.131 187.576 77.262 188.208 76.611 187.742L71.586 184.15L66.561 187.742C65.91 188.207 65.043 187.577 65.283 186.814L67.147 180.925L62.178 177.255C61.535 176.779 61.866 175.76 62.666 175.753L68.843 175.706L70.797 169.846C71.049 169.087 72.122 169.087 72.375 169.846Z" fill="#ECEFF4"/>
<path d="M72.375 200.5L74.329 206.36L80.506 206.407C81.306 206.414 81.637 207.434 80.994 207.909L76.025 211.579L77.889 217.468C78.131 218.23 77.262 218.862 76.611 218.396L71.586 214.804L66.561 218.396C65.91 218.861 65.043 218.23 65.283 217.468L67.147 211.579L62.178 207.909C61.535 207.435 61.866 206.414 62.666 206.407L68.843 206.36L70.797 200.5C71.049 199.741 72.122 199.741 72.375 200.5Z" fill="#ECEFF4"/>
<path d="M72.375 231.154L74.329 237.014L80.506 237.061C81.306 237.068 81.637 238.087 80.994 238.563L76.025 242.233L77.889 248.122C78.131 248.884 77.262 249.516 76.611 249.05L71.586 245.458L66.561 249.05C65.91 249.515 65.043 248.884 65.283 248.122L67.147 242.233L62.178 238.563C61.535 238.087 61.866 237.068 62.666 237.061L68.843 237.014L70.797 231.154C71.049 230.396 72.122 230.396 72.375 231.154Z" fill="#ECEFF4"/>
<path d="M96.169 123.566L98.123 129.426L104.3 129.473C105.1 129.48 105.431 130.5 104.788 130.975L99.819 134.645L101.683 140.534C101.925 141.296 101.056 141.928 100.405 141.462L95.38 137.87L90.355 141.462C89.704 141.927 88.837 141.296 89.077 140.534L90.941 134.645L85.972 130.975C85.329 130.499 85.66 129.48 86.46 129.473L92.637 129.426L94.591 123.566C94.842 122.808 95.916 122.808 96.169 123.566Z" fill="#ECEFF4"/>
<path d="M96.169 154.221L98.123 160.081L104.3 160.128C105.1 160.135 105.431 161.155 104.788 161.63L99.819 165.3L101.683 171.189C101.925 171.951 101.056 172.583 100.405 172.117L95.38 168.525L90.355 172.117C89.704 172.582 88.837 171.952 89.077 171.189L90.941 165.3L85.972 161.63C85.329 161.156 85.66 160.135 86.46 160.128L92.637 160.081L94.591 154.221C94.842 153.462 95.916 153.462 96.169 154.221Z" fill="#ECEFF4"/>
<path d="M96.169 184.875L98.123 190.735L104.3 190.782C105.1 190.789 105.431 191.808 104.788 192.284L99.819 195.954L101.683 201.843C101.925 202.605 101.056 203.237 100.405 202.771L95.38 199.179L90.355 202.771C89.704 203.236 88.837 202.605 89.077 201.843L90.941 195.954L85.972 192.284C85.329 191.808 85.66 190.789 86.46 190.782L92.637 190.735L94.591 184.875C94.842 184.116 95.916 184.116 96.169 184.875Z" fill="#ECEFF4"/>
<path d="M96.169 215.529L98.123 221.389L104.3 221.436C105.1 221.443 105.431 222.462 104.788 222.938L99.819 226.608L101.683 232.497C101.925 233.259 101.056 233.891 100.405 233.425L95.38 229.833L90.355 233.425C89.704 233.891 88.837 233.259 89.077 232.497L90.941 226.608L85.972 222.938C85.329 222.462 85.66 221.443 86.46 221.436L92.637 221.389L94.591 215.529C94.842 214.771 95.916 214.771 96.169 215.529Z" fill="#ECEFF4"/>
<path d="M119.962 108.537L121.916 114.397L128.093 114.444C128.893 114.451 129.224 115.471 128.581 115.946L123.612 119.615L125.476 125.504C125.718 126.266 124.849 126.898 124.198 126.432L119.172 122.841L114.147 126.433C113.496 126.899 112.629 126.267 112.869 125.505L114.733 119.616L109.764 115.947C109.121 115.471 109.452 114.451 110.252 114.445L116.429 114.398L118.383 108.538C118.636 107.778 119.709 107.778 119.962 108.537Z" fill="#ECEFF4"/>
<path d="M119.962 139.191L121.916 145.051L128.093 145.098C128.893 145.105 129.224 146.124 128.581 146.6L123.612 150.27L125.476 156.159C125.718 156.921 124.849 157.553 124.198 157.087L119.172 153.495L114.147 157.087C113.496 157.552 112.629 156.921 112.869 156.159L114.733 150.27L109.764 146.6C109.121 146.124 109.452 145.105 110.252 145.098L116.429 145.051L118.383 139.191C118.636 138.433 119.709 138.433 119.962 139.191Z" fill="#ECEFF4"/>
<path d="M119.962 169.846L121.916 175.706L128.093 175.753C128.893 175.76 129.224 176.779 128.581 177.255L123.612 180.925L125.476 186.814C125.718 187.576 124.849 188.208 124.198 187.742L119.172 184.149L114.147 187.741C113.496 188.206 112.629 187.575 112.869 186.813L114.733 180.924L109.764 177.254C109.121 176.778 109.452 175.759 110.252 175.752L116.429 175.705L118.383 169.845C118.636 169.087 119.709 169.087 119.962 169.846Z" fill="#ECEFF4"/>
<path d="M119.962 200.5L121.916 206.36L128.093 206.407C128.893 206.414 129.224 207.434 128.581 207.909L123.612 211.579L125.476 217.468C125.718 218.23 124.849 218.862 124.198 218.396L119.172 214.804L114.147 218.396C113.496 218.861 112.629 218.23 112.869 217.468L114.733 211.579L109.764 207.909C109.121 207.435 109.452 206.414 110.252 206.407L116.429 206.36L118.383 200.5C118.636 199.741 119.709 199.741 119.962 200.5Z" fill="#ECEFF4"/>
<path d="M119.962 231.154L121.916 237.014L128.093 237.061C128.893 237.068 129.224 238.087 128.581 238.563L123.612 242.233L125.476 248.122C125.718 248.884 124.849 249.516 124.198 249.05L119.172 245.458L114.147 249.05C113.496 249.515 112.629 248.884 112.869 248.122L114.733 242.233L109.764 238.563C109.121 238.087 109.452 237.068 110.252 237.061L116.429 237.014L118.383 231.154C118.636 230.396 119.709 230.396 119.962 231.154Z" fill="#ECEFF4"/>
<path d="M143.755 123.566L145.709 129.426L151.886 129.473C152.686 129.48 153.017 130.5 152.374 130.975L147.405 134.645L149.269 140.534C149.511 141.296 148.642 141.928 147.991 141.462L142.966 137.87L137.941 141.462C137.29 141.927 136.423 141.296 136.663 140.534L138.527 134.645L133.558 130.975C132.915 130.499 133.246 129.48 134.046 129.473L140.223 129.426L142.177 123.566C142.43 122.808 143.502 122.808 143.755 123.566Z" fill="#ECEFF4"/>
<path d="M143.755 154.221L145.709 160.081L151.886 160.128C152.686 160.135 153.017 161.155 152.374 161.63L147.405 165.3L149.269 171.189C149.511 171.951 148.642 172.583 147.991 172.117L142.966 168.525L137.941 172.117C137.29 172.582 136.423 171.952 136.663 171.189L138.527 165.3L133.558 161.63C132.915 161.156 133.246 160.135 134.046 160.128L140.223 160.081L142.177 154.221C142.43 153.462 143.502 153.462 143.755 154.221Z" fill="#ECEFF4"/>
<path d="M143.755 184.875L145.709 190.735L151.886 190.782C152.686 190.789 153.017 191.808 152.374 192.284L147.405 195.954L149.269 201.843C149.511 202.605 148.642 203.237 147.991 202.771L142.966 199.179L137.941 202.771C137.29 203.236 136.423 202.605 136.663 201.843L138.527 195.954L133.558 192.284C132.915 191.808 133.246 190.789 134.046 190.782L140.223 190.735L142.177 184.875C142.43 184.116 143.502 184.116 143.755 184.875Z" fill="#ECEFF4"/>
<path d="M143.755 215.529L145.709 221.389L151.886 221.436C152.686 221.443 153.017 222.462 152.374 222.938L147.405 226.608L149.269 232.497C149.511 233.259 148.642 233.891 147.991 233.425L142.966 229.833L137.941 233.425C137.29 233.891 136.423 233.259 136.663 232.497L138.527 226.608L133.558 222.938C132.915 222.462 133.246 221.443 134.046 221.436L140.223 221.389L142.177 215.529C142.43 214.771 143.502 214.771 143.755 215.529Z" fill="#ECEFF4"/>
<path d="M167.549 108.537L169.503 114.397L175.68 114.444C176.48 114.451 176.811 115.471 176.168 115.946L171.199 119.615L173.063 125.504C173.305 126.266 172.436 126.898 171.785 126.432L166.76 122.84L161.735 126.432C161.084 126.898 160.217 126.266 160.457 125.504L162.321 119.615L157.352 115.946C156.709 115.47 157.04 114.45 157.84 114.444L164.017 114.397L165.971 108.537C166.222 107.778 167.296 107.778 167.549 108.537Z" fill="#ECEFF4"/>
<path d="M167.549 139.191L169.503 145.051L175.68 145.098C176.48 145.105 176.811 146.124 176.168 146.6L171.199 150.27L173.063 156.159C173.305 156.921 172.436 157.553 171.785 157.087L166.76 153.495L161.735 157.087C161.084 157.552 160.217 156.921 160.457 156.159L162.321 150.27L157.352 146.6C156.709 146.124 157.04 145.105 157.84 145.098L164.017 145.051L165.971 139.191C166.222 138.433 167.296 138.433 167.549 139.191Z" fill="#ECEFF4"/>
<path d="M167.549 169.846L169.503 175.706L175.68 175.753C176.48 175.76 176.811 176.779 176.168 177.255L171.199 180.925L173.063 186.814C173.305 187.576 172.436 188.208 171.785 187.742L166.76 184.15L161.735 187.742C161.084 188.207 160.217 187.577 160.457 186.814L162.321 180.925L157.352 177.255C156.709 176.779 157.04 175.76 157.84 175.753L164.017 175.706L165.971 169.846C166.222 169.087 167.296 169.087 167.549 169.846Z" fill="#ECEFF4"/>
<path d="M167.549 200.5L169.503 206.36L175.68 206.407C176.48 206.414 176.811 207.434 176.168 207.909L171.199 211.579L173.063 217.468C173.305 218.23 172.436 218.862 171.785 218.396L166.76 214.804L161.735 218.396C161.084 218.861 160.217 218.23 160.457 217.468L162.321 211.579L157.352 207.909C156.709 207.435 157.04 206.414 157.84 206.407L164.017 206.36L165.971 200.5C166.222 199.741 167.296 199.741 167.549 200.5Z" fill="#ECEFF4"/>
<path d="M167.549 231.154L169.503 237.014L175.68 237.061C176.48 237.068 176.811 238.087 176.168 238.563L171.199 242.233L173.063 248.122C173.305 248.884 172.436 249.516 171.785 249.05L166.76 245.458L161.735 249.05C161.084 249.515 160.217 248.884 160.457 248.122L162.321 242.233L157.352 238.563C156.709 238.087 157.04 237.068 157.84 237.061L164.017 237.014L165.971 231.154C166.222 230.396 167.296 230.396 167.549 231.154Z" fill="#ECEFF4"/>
<path d="M191.342 123.566L193.296 129.426L199.473 129.473C200.273 129.48 200.604 130.5 199.961 130.975L194.992 134.645L196.856 140.534C197.098 141.296 196.229 141.928 195.578 141.462L190.553 137.87L185.528 141.462C184.877 141.927 184.01 141.296 184.25 140.534L186.114 134.645L181.145 130.975C180.502 130.499 180.833 129.48 181.633 129.473L187.81 129.426L189.764 123.566C190.016 122.808 191.089 122.808 191.342 123.566Z" fill="#ECEFF4"/>
<path d="M191.342 154.221L193.296 160.081L199.473 160.128C200.273 160.135 200.604 161.155 199.961 161.63L194.992 165.3L196.856 171.189C197.098 171.951 196.229 172.583 195.578 172.117L190.553 168.525L185.528 172.117C184.877 172.582 184.01 171.952 184.25 171.189L186.114 165.3L181.145 161.63C180.502 161.156 180.833 160.135 181.633 160.128L187.81 160.081L189.764 154.221C190.016 153.462 191.089 153.462 191.342 154.221Z" fill="#ECEFF4"/>
<path d="M191.342 184.875L193.296 190.735L199.473 190.782C200.273 190.789 200.604 191.808 199.961 192.284L194.992 195.954L196.856 201.843C197.098 202.605 196.229 203.237 195.578 202.771L190.553 199.179L185.528 202.771C184.877 203.236 184.01 202.605 184.25 201.843L186.114 195.954L181.145 192.284C180.502 191.808 180.833 190.789 181.633 190.782L187.81 190.735L189.764 184.875C190.016 184.116 191.089 184.116 191.342 184.875Z" fill="#ECEFF4"/>
<path d="M191.342 215.529L193.296 221.389L199.473 221.436C200.273 221.443 200.604 222.462 199.961 222.938L194.992 226.608L196.856 232.497C197.098 233.259 196.229 233.891 195.578 233.425L190.553 229.833L185.528 233.425C184.877 233.891 184.01 233.259 184.25 232.497L186.114 226.608L181.145 222.938C180.502 222.462 180.833 221.443 181.633 221.436L187.81 221.389L189.764 215.529C190.016 214.771 191.089 214.771 191.342 215.529Z" fill="#ECEFF4"/>
<path d="M215.136 108.537L217.09 114.397L223.267 114.444C224.067 114.451 224.398 115.471 223.755 115.946L218.786 119.615L220.65 125.504C220.892 126.266 220.023 126.898 219.372 126.432L214.347 122.84L209.322 126.432C208.671 126.898 207.804 126.266 208.044 125.504L209.908 119.615L204.939 115.946C204.296 115.47 204.627 114.45 205.427 114.444L211.604 114.397L213.558 108.537C213.81 107.778 214.882 107.778 215.136 108.537Z" fill="#ECEFF4"/>
<path d="M215.136 139.191L217.09 145.051L223.267 145.098C224.067 145.105 224.398 146.124 223.755 146.6L218.786 150.27L220.65 156.159C220.892 156.921 220.023 157.553 219.372 157.087L214.347 153.495L209.322 157.087C208.671 157.552 207.804 156.921 208.044 156.159L209.908 150.27L204.939 146.6C204.296 146.124 204.627 145.105 205.427 145.098L211.604 145.051L213.558 139.191C213.81 138.433 214.882 138.433 215.136 139.191Z" fill="#ECEFF4"/>
<path d="M215.136 169.846L217.09 175.706L223.267 175.753C224.067 175.76 224.398 176.779 223.755 177.255L218.786 180.925L220.65 186.814C220.892 187.576 220.023 188.208 219.372 187.742L214.347 184.15L209.322 187.742C208.671 188.207 207.804 187.577 208.044 186.814L209.908 180.925L204.939 177.255C204.296 176.779 204.627 175.76 205.427 175.753L211.604 175.706L213.558 169.846C213.81 169.087 214.882 169.087 215.136 169.846Z" fill="#ECEFF4"/>
<path d="M215.136 200.5L217.09 206.36L223.267 206.407C224.067 206.414 224.398 207.434 223.755 207.909L218.786 211.579L220.65 217.468C220.892 218.23 220.023 218.862 219.372 218.396L214.347 214.804L209.322 218.396C208.671 218.861 207.804 218.23 208.044 217.468L209.908 211.579L204.939 207.909C204.296 207.435 204.627 206.414 205.427 206.407L211.604 206.36L213.558 200.5C213.81 199.741 214.882 199.741 215.136 200.5Z" fill="#ECEFF4"/>
<path d="M215.136 231.154L217.09 237.014L223.267 237.061C224.067 237.068 224.398 238.087 223.755 238.563L218.786 242.233L220.65 248.122C220.892 248.884 220.023 249.516 219.372 249.05L214.347 245.458L209.322 249.05C208.671 249.515 207.804 248.884 208.044 248.122L209.908 242.233L204.939 238.563C204.296 238.087 204.627 237.068 205.427 237.061L211.604 237.014L213.558 231.154C213.81 230.396 214.882 230.396 215.136 231.154Z" fill="#ECEFF4"/>
</svg>
