<svg width="512" height="512" viewBox="0 0 512 512" fill="none" xmlns="http://www.w3.org/2000/svg">
<g clip-path="url(#clip0)">
<path d="M473.7 88.25H38.3C17.2 88.25 0 105.35 0 126.55V385.35C0 406.55 17.2 423.65 38.3 423.65H473.6C494.8 423.65 511.9 406.45 511.9 385.35V126.55C512 105.35 494.8 88.25 473.7 88.25Z" fill="#BF616A"/>
<path d="M260.1 155.95L283.7 226.75L358.3 227.35C362.5 227.35 364.2 232.75 360.8 235.15L300.8 279.45L323.3 350.55C324.6 354.55 320 357.85 316.6 355.35L256 312.05L195.3 355.45C191.9 357.85 187.4 354.55 188.6 350.65L211.1 279.55L151.1 235.25C147.7 232.75 149.5 227.45 153.6 227.45L228.2 226.85L251.8 156.05C253.2 151.95 258.8 151.95 260.1 155.95Z" fill="#EBCB8B"/>
</g>
<defs>
<clipPath id="clip0">
<rect width="511.9" height="511.9" fill="white"/>
</clipPath>
</defs>
</svg>
