<?xml version="1.0" standalone="no"?>
        <!DOCTYPE svg PUBLIC "-//W3C//DTD SVG 1.1//EN" 
        "http://www.w3.org/Graphics/SVG/1.1/DTD/svg11.dtd"> <svg style="height: 200px; width: 200px; color: rgb(235, 203, 139);" xmlns="http://www.w3.org/2000/svg" width="16" height="16" fill="currentColor" class="bi bi-brightness-low-fill" viewBox="0 0 16 16"> <path d="M12 8a4 4 0 1 1-8 0 4 4 0 0 1 8 0zM8.5 2.5a.5.5 0 1 1-1 0 .5.5 0 0 1 1 0zm0 11a.5.5 0 1 1-1 0 .5.5 0 0 1 1 0zm5-5a.5.5 0 1 1 0-1 .5.5 0 0 1 0 1zm-11 0a.5.5 0 1 1 0-1 .5.5 0 0 1 0 1zm9.743-4.036a.5.5 0 1 1-.707-.707.5.5 0 0 1 .707.707zm-7.779 7.779a.5.5 0 1 1-.707-.707.5.5 0 0 1 .707.707zm7.072 0a.5.5 0 1 1 .707-.707.5.5 0 0 1-.707.707zM3.757 4.464a.5.5 0 1 1 .707-.707.5.5 0 0 1-.707.707z" fill="#EBCB8B"></path> </svg> 