<svg xmlns="http://www.w3.org/2000/svg"  viewBox="0 0 100 100" width="100px" height="100px"><path fill="#c7ede6" d="M88.683,55.675c0.3-0.616,0.566-1.264,0.796-1.943c2.633-7.77-1.349-17.078-9.733-19.325C78.84,23.024,70.84,15.215,61.805,13.882c-10.341-1.525-19.814,5.044-22.966,15.485c-3.799-1.346-7.501-1.182-10.99,0.857c-1.583,0.732-3.031,1.812-4.33,3.233c-1.907,2.086-3.147,4.719-3.652,7.495c-0.748,0.118-1.483,0.236-2.176,0.484c-4.04,1.449-6.589,4.431-7.288,8.923c-0.435,2.797,0.443,5.587,0.933,6.714c1.935,4.455,6.422,6.98,10.981,6.312c0.227-0.033,0.557,0.069,0.752,0.233c0.241,7.12,3.698,13.417,8.884,17.014c8.321,5.772,19.027,3.994,25.781-3.921c2.894,2.96,6.338,4.398,10.384,3.876c4.023-0.519,7.147-2.739,9.426-6.349c1.053,0.283,2.051,0.691,3.083,0.804c4.042,0.442,7.324-1.165,9.732-4.8c0.922-1.391,1.793-3.194,1.793-6.354C92.153,60.632,90.86,57.665,88.683,55.675z"/><path fill="#fdfcef" d="M76.789,49.047c0,0,11.691,0,11.762,0c2.7,0,4.888-2.189,4.888-4.889c0-2.355-1.666-4.321-3.884-4.784c0.026-0.206,0.043-0.415,0.043-0.628c0-2.796-2.267-5.063-5.063-5.063c-1.651,0-3.113,0.794-4.037,2.017c-0.236-3.113-3.017-5.514-6.27-5.116c-2.379,0.291-4.346,2.13-4.784,4.486c-0.14,0.756-0.126,1.489,0.014,2.177c-0.638-0.687-1.546-1.119-2.557-1.119c-1.85,0-3.361,1.441-3.48,3.261c-0.84-0.186-1.754-0.174-2.717,0.188c-1.84,0.691-3.15,2.423-3.227,4.387c-0.109,2.789,2.12,5.085,4.885,5.085c0.21,0,0.948,0,1.118,0h10.151"/><path fill="#472b29" d="M88.551,49.547H76.789c-0.276,0-0.5-0.224-0.5-0.5s0.224-0.5,0.5-0.5h11.762c2.42,0,4.389-1.969,4.389-4.389c0-2.066-1.466-3.873-3.486-4.295c-0.255-0.053-0.426-0.292-0.394-0.55c0.023-0.186,0.039-0.375,0.039-0.567c0-2.516-2.047-4.563-4.563-4.563c-1.438,0-2.765,0.663-3.638,1.818c-0.125,0.166-0.339,0.24-0.54,0.178c-0.199-0.059-0.342-0.234-0.357-0.441c-0.104-1.377-0.779-2.67-1.85-3.549c-1.082-0.887-2.457-1.282-3.86-1.109c-2.166,0.265-3.956,1.943-4.353,4.081c-0.124,0.667-0.12,1.335,0.013,1.986c0.044,0.22-0.062,0.442-0.262,0.544c-0.2,0.102-0.443,0.06-0.595-0.104c-0.575-0.619-1.353-0.959-2.19-0.959c-1.569,0-2.878,1.227-2.981,2.794c-0.01,0.146-0.083,0.28-0.199,0.367c-0.116,0.087-0.267,0.119-0.408,0.088c-0.842-0.187-1.638-0.131-2.433,0.167c-1.669,0.626-2.835,2.208-2.903,3.938c-0.047,1.207,0.387,2.35,1.222,3.218c0.835,0.868,1.958,1.347,3.163,1.347h11.269c0.276,0,0.5,0.224,0.5,0.5s-0.224,0.5-0.5,0.5H62.363c-1.479,0-2.858-0.587-3.884-1.654c-1.025-1.066-1.558-2.469-1.5-3.95c0.083-2.126,1.51-4.069,3.55-4.835c0.801-0.3,1.629-0.4,2.468-0.299c0.377-1.823,1.998-3.182,3.905-3.182c0.684,0,1.354,0.18,1.944,0.51c0-0.385,0.035-0.772,0.106-1.159c0.477-2.562,2.621-4.573,5.215-4.891c1.679-0.209,3.32,0.266,4.616,1.328c1.003,0.823,1.716,1.951,2.038,3.193c1.012-0.916,2.319-1.425,3.714-1.425c3.067,0,5.563,2.496,5.563,5.563c0,0.083-0.002,0.166-0.007,0.249c2.254,0.673,3.848,2.777,3.848,5.164C93.939,47.129,91.522,49.547,88.551,49.547z"/><path fill="#fdfcef" d="M73.956,38.278c-1.808-0.119-3.365,1.13-3.476,2.789c-0.014,0.206-0.005,0.409,0.025,0.606c-0.349-0.394-0.865-0.661-1.458-0.7c-1.085-0.071-2.022,0.645-2.158,1.62c-0.197-0.054-0.403-0.09-0.616-0.104c-1.582-0.104-2.944,0.989-3.042,2.441"/><path fill="#472b29" d="M63.231,45.179c-0.006,0-0.012,0-0.017,0c-0.138-0.009-0.242-0.128-0.233-0.266c0.107-1.586,1.58-2.782,3.308-2.673c0.135,0.009,0.271,0.027,0.408,0.053c0.273-0.968,1.252-1.645,2.366-1.568c0.419,0.027,0.821,0.163,1.163,0.384c0.001-0.019,0.002-0.039,0.003-0.058c0.121-1.794,1.796-3.138,3.742-3.022c0.138,0.009,0.242,0.128,0.233,0.266c-0.009,0.137-0.124,0.243-0.266,0.233c-1.67-0.106-3.108,1.038-3.21,2.557c-0.012,0.184-0.004,0.37,0.023,0.552c0.017,0.109-0.041,0.217-0.141,0.264c-0.101,0.047-0.22,0.022-0.293-0.061C70,41.48,69.53,41.256,69.03,41.223c-0.948-0.067-1.776,0.554-1.894,1.405c-0.01,0.071-0.05,0.134-0.11,0.174c-0.06,0.04-0.133,0.051-0.204,0.033c-0.188-0.051-0.379-0.084-0.567-0.096c-1.437-0.101-2.688,0.895-2.776,2.208C63.471,45.078,63.362,45.179,63.231,45.179z"/><path fill="#fdfcef" d="M90.53,39.947c-1.699-0.801-3.664-0.234-4.389,1.267c-0.09,0.186-0.157,0.379-0.201,0.574"/><path fill="#472b29" d="M85.94,42.037c-0.018,0-0.037-0.002-0.056-0.006c-0.135-0.031-0.219-0.165-0.188-0.299c0.049-0.217,0.124-0.428,0.22-0.627c0.783-1.621,2.902-2.243,4.72-1.384c0.125,0.059,0.179,0.208,0.12,0.333c-0.059,0.125-0.209,0.178-0.333,0.12c-1.573-0.741-3.393-0.227-4.057,1.149c-0.08,0.165-0.142,0.34-0.183,0.521C86.157,41.958,86.054,42.037,85.94,42.037z"/><path fill="#fff" d="M18.348 47.711H8.318c-.276 0-.5-.224-.5-.5s.224-.5.5-.5h10.03c.276 0 .5.224.5.5S18.625 47.711 18.348 47.711zM21.23 47.711h-1.446c-.276 0-.5-.224-.5-.5s.224-.5.5-.5h1.446c.276 0 .5.224.5.5S21.506 47.711 21.23 47.711zM25.284 47.711h-2.546c-.276 0-.5-.224-.5-.5s.224-.5.5-.5h2.546c.276 0 .5.224.5.5S25.56 47.711 25.284 47.711zM25.284 49.576h-9.616c-.276 0-.5-.224-.5-.5s.224-.5.5-.5h9.616c.276 0 .5.224.5.5S25.56 49.576 25.284 49.576zM13.936 49.576h-.58c-.276 0-.5-.224-.5-.5s.224-.5.5-.5h.58c.276 0 .5.224.5.5S14.213 49.576 13.936 49.576zM11.559 49.576h-1.456c-.276 0-.5-.224-.5-.5s.224-.5.5-.5h1.456c.276 0 .5.224.5.5S11.836 49.576 11.559 49.576zM20.695 45.846h-5.027c-.276 0-.5-.224-.5-.5s.224-.5.5-.5h5.027c.276 0 .5.224.5.5S20.971 45.846 20.695 45.846zM20.695 43.981h-1.257c-.276 0-.5-.224-.5-.5s.224-.5.5-.5h1.257c.276 0 .5.224.5.5S20.971 43.981 20.695 43.981zM17.426 51.441h-1.759c-.276 0-.5-.224-.5-.5s.224-.5.5-.5h1.759c.276 0 .5.224.5.5S17.703 51.441 17.426 51.441zM71.526 21.434h-10.03c-.276 0-.5-.224-.5-.5s.224-.5.5-.5h10.03c.276 0 .5.224.5.5S71.802 21.434 71.526 21.434zM74.407 21.434h-1.446c-.276 0-.5-.224-.5-.5s.224-.5.5-.5h1.446c.276 0 .5.224.5.5S74.684 21.434 74.407 21.434zM78.462 21.434h-2.546c-.276 0-.5-.224-.5-.5s.224-.5.5-.5h2.546c.276 0 .5.224.5.5S78.739 21.434 78.462 21.434zM76.436 17.704H66.82c-.276 0-.5-.224-.5-.5s.224-.5.5-.5h9.616c.276 0 .5.224.5.5S76.713 17.704 76.436 17.704zM65.088 17.704h-.58c-.276 0-.5-.224-.5-.5s.224-.5.5-.5h.58c.276 0 .5.224.5.5S65.364 17.704 65.088 17.704zM62.712 17.704h-1.457c-.276 0-.5-.224-.5-.5s.224-.5.5-.5h1.457c.276 0 .5.224.5.5S62.988 17.704 62.712 17.704zM73.873 19.569h-5.027c-.276 0-.5-.224-.5-.5s.224-.5.5-.5h5.027c.276 0 .5.224.5.5S74.15 19.569 73.873 19.569z"/><path fill="#fff" d="M73.873 17.704h-1.257c-.276 0-.5-.224-.5-.5s.224-.5.5-.5h1.257c.276 0 .5.224.5.5S74.15 17.704 73.873 17.704zM67.39 19.569h-1.759c-.276 0-.5-.224-.5-.5s.224-.5.5-.5h1.759c.276 0 .5.224.5.5S67.667 19.569 67.39 19.569z"/><path fill="#78a0cf" d="M66.87,72.645H37.157c-3.766,0-6.847-3.081-6.847-6.847V36.084c0-3.766,3.081-6.847,6.847-6.847H66.87c3.766,0,6.847,3.081,6.847,6.847v29.713C73.717,69.563,70.636,72.645,66.87,72.645z"/><path fill="#472b29" d="M66.87,73.345H37.156c-4.162,0-7.547-3.386-7.547-7.547V36.084c0-4.162,3.386-7.547,7.547-7.547H66.87c4.162,0,7.547,3.386,7.547,7.547v29.713C74.417,69.959,71.031,73.345,66.87,73.345z M37.156,29.937c-3.39,0-6.147,2.757-6.147,6.147v29.713c0,3.39,2.757,6.147,6.147,6.147H66.87c3.39,0,6.147-2.757,6.147-6.147V36.084c0-3.39-2.757-6.147-6.147-6.147H37.156z"/><path fill="#fdfcee" d="M65.068,69.544H38.959c-3.052,0-5.549-2.497-5.549-5.549V37.886c0-3.052,2.497-5.549,5.549-5.549h26.109c3.052,0,5.549,2.497,5.549,5.549v26.109C70.616,67.047,68.119,69.544,65.068,69.544z"/><path fill="#472b29" d="M64.963 69.894H39.064c-3.311 0-6.004-2.694-6.004-6.004V37.991c0-3.311 2.694-6.004 6.004-6.004h24.662c.193 0 .35.157.35.35s-.157.35-.35.35H39.064c-2.925 0-5.304 2.379-5.304 5.304V63.89c0 2.925 2.379 5.304 5.304 5.304h25.898c2.924 0 5.304-2.379 5.304-5.304V49.563c0-.193.157-.35.35-.35s.35.157.35.35V63.89C70.967 67.2 68.273 69.894 64.963 69.894zM70.616 47.846c-.193 0-.35-.157-.35-.35V44.74c0-.193.157-.35.35-.35s.35.157.35.35v2.756C70.967 47.689 70.81 47.846 70.616 47.846zM70.616 43.712c-.193 0-.35-.157-.35-.35v-1.378c0-.193.157-.35.35-.35s.35.157.35.35v1.378C70.967 43.555 70.81 43.712 70.616 43.712z"/><path fill="#cbc9bc" d="M58.627,52.831h-1.804c0.01,0-0.009,0-0.086,0v-3.779h1.89c2.61,0,4.724-2.115,4.724-4.724c0-2.61-2.115-4.724-4.724-4.724c-2.61,0-4.724,2.115-4.724,4.724v1.805c0-0.01,0,0.009,0,0.085h-3.779v-1.89c0-2.61-2.115-4.724-4.724-4.724c-2.61,0-4.724,2.115-4.724,4.724c0,2.61,2.115,4.724,4.724,4.724h1.805c-0.01,0,0.009,0,0.085,0v3.779h-1.89c-2.61,0-4.724,2.115-4.724,4.724c0,2.61,2.115,4.724,4.724,4.724c2.61,0,4.724-2.115,4.724-4.724V55.75c0,0.011,0-0.008,0-0.085h3.779v1.89c0,2.61,2.115,4.724,4.724,4.724c2.61,0,4.724-2.115,4.724-4.724C63.352,54.945,61.237,52.831,58.627,52.831z M56.738,44.327c0-1.043,0.847-1.89,1.89-1.89c1.043,0,1.89,0.847,1.89,1.89s-0.847,1.89-1.89,1.89c-0.492,0-1.89,0-1.89,0S56.738,44.879,56.738,44.327z M47.289,57.555c0,1.043-0.847,1.89-1.89,1.89s-1.89-0.847-1.89-1.89c0-1.043,0.847-1.89,1.89-1.89c0.492,0,1.89,0,1.89,0S47.289,57.003,47.289,57.555z M47.289,46.216c0,0-1.338,0-1.89,0c-1.043,0-1.89-0.847-1.89-1.89s0.847-1.89,1.89-1.89s1.89,0.847,1.89,1.89C47.289,44.819,47.289,46.216,47.289,46.216z M53.903,52.831h-3.779v-3.779h3.779V52.831z M58.627,59.445c-1.043,0-1.89-0.847-1.89-1.89c0-0.492,0-1.89,0-1.89s1.338,0,1.89,0c1.043,0,1.89,0.847,1.89,1.89C60.517,58.598,59.67,59.445,58.627,59.445z"/><path fill="#472b29" d="M58.627,62.629c-2.798,0-5.074-2.276-5.074-5.074v-1.54h-3.08v1.54c0,2.798-2.276,5.074-5.074,5.074s-5.074-2.276-5.074-5.074s2.276-5.074,5.074-5.074h1.54v-3.08h-1.54c-2.798,0-5.074-2.276-5.074-5.074c0-2.798,2.276-5.075,5.074-5.075s5.074,2.276,5.074,5.075v1.54h3.08v-1.54c0-2.798,2.276-5.075,5.074-5.075c2.798,0,5.075,2.276,5.075,5.075c0,2.798-2.276,5.074-5.075,5.074h-1.54v3.08h1.54c2.798,0,5.075,2.276,5.075,5.074S61.426,62.629,58.627,62.629z M50.123,55.315h3.78c0.193,0,0.35,0.157,0.35,0.35v1.89c0,2.412,1.962,4.374,4.374,4.374s4.375-1.962,4.375-4.374s-1.962-4.374-4.375-4.374h-1.89c-0.193,0-0.35-0.157-0.35-0.35v-3.78c0-0.193,0.157-0.35,0.35-0.35h1.89c2.412,0,4.375-1.962,4.375-4.374s-1.962-4.375-4.375-4.375s-4.374,1.962-4.374,4.375v1.89c0,0.193-0.157,0.35-0.35,0.35h-3.78c-0.193,0-0.35-0.157-0.35-0.35v-1.89c0-2.412-1.962-4.375-4.374-4.375s-4.374,1.962-4.374,4.375s1.962,4.374,4.374,4.374h1.89c0.193,0,0.35,0.157,0.35,0.35v3.78c0,0.193-0.157,0.35-0.35,0.35h-1.89c-2.412,0-4.374,1.962-4.374,4.374s1.962,4.374,4.374,4.374s4.374-1.962,4.374-4.374v-1.89C49.773,55.472,49.93,55.315,50.123,55.315z M58.627,59.795c-1.235,0-2.24-1.005-2.24-2.24v-1.89c0-0.193,0.157-0.35,0.35-0.35h1.89c1.235,0,2.24,1.005,2.24,2.24S59.862,59.795,58.627,59.795z M57.088,56.015v1.54c0,0.849,0.69,1.54,1.54,1.54s1.54-0.69,1.54-1.54s-0.69-1.54-1.54-1.54H57.088z M45.399,59.795c-1.235,0-2.24-1.005-2.24-2.24s1.005-2.24,2.24-2.24h1.89c0.193,0,0.35,0.157,0.35,0.35v1.89C47.639,58.79,46.634,59.795,45.399,59.795z M45.399,56.015c-0.849,0-1.54,0.69-1.54,1.54s0.69,1.54,1.54,1.54s1.54-0.69,1.54-1.54v-1.54H45.399z M53.903,53.181h-3.78c-0.193,0-0.35-0.157-0.35-0.35v-3.78c0-0.193,0.157-0.35,0.35-0.35h3.78c0.193,0,0.35,0.157,0.35,0.35v3.78C54.253,53.024,54.096,53.181,53.903,53.181z M50.473,52.481h3.08v-3.08h-3.08V52.481z M58.627,46.567h-1.89c-0.193,0-0.35-0.157-0.35-0.35v-1.89c0-1.235,1.005-2.24,2.24-2.24s2.24,1.005,2.24,2.24S59.862,46.567,58.627,46.567z M57.088,45.866h1.54c0.849,0,1.54-0.69,1.54-1.54s-0.69-1.54-1.54-1.54s-1.54,0.69-1.54,1.54V45.866z M47.289,46.567h-1.89c-1.235,0-2.24-1.005-2.24-2.24s1.005-2.24,2.24-2.24s2.24,1.005,2.24,2.24v1.89C47.639,46.41,47.482,46.567,47.289,46.567z M45.399,42.787c-0.849,0-1.54,0.69-1.54,1.54s0.69,1.54,1.54,1.54h1.54v-1.54C46.939,43.478,46.248,42.787,45.399,42.787z"/><path fill="#fdfcef" d="M40.625,75.412c1.883,0,3.517,0,3.54,0c2.11,0,3.821-1.674,3.821-3.739c0-1.802-1.302-3.305-3.035-3.66c0.02-0.158,0.034-0.317,0.034-0.48c0-2.139-1.772-3.873-3.957-3.873c-1.29,0-2.433,0.607-3.155,1.543c-0.185-2.381-2.358-4.218-4.9-3.913c-1.859,0.223-3.397,1.629-3.739,3.431c-0.11,0.578-0.098,1.139,0.011,1.665c-0.498-0.525-1.208-0.856-1.998-0.856c-1.446,0-2.627,1.102-2.72,2.494c-0.657-0.142-1.371-0.133-2.123,0.143c-1.438,0.528-2.462,1.853-2.522,3.356c-0.085,2.133,1.657,3.889,3.818,3.889c0.164,0,0.741,0,0.874,0h7.934 M34.148,75.412h0.36"/><path fill="#472b29" d="M44.165,75.912h-3.541c-0.276,0-0.5-0.224-0.5-0.5s0.224-0.5,0.5-0.5h3.541c1.831,0,3.32-1.453,3.32-3.239c0-1.524-1.108-2.857-2.635-3.17c-0.256-0.052-0.429-0.293-0.396-0.553c0.018-0.137,0.03-0.276,0.03-0.417c0-1.86-1.551-3.373-3.457-3.373c-1.092,0-2.098,0.492-2.759,1.349c-0.127,0.164-0.341,0.232-0.539,0.173c-0.198-0.059-0.339-0.234-0.355-0.44c-0.079-1.019-0.565-1.943-1.369-2.603c-0.828-0.68-1.885-0.984-2.973-0.853c-1.646,0.197-3.006,1.442-3.307,3.028c-0.094,0.495-0.09,0.989,0.01,1.471c0.045,0.219-0.06,0.441-0.258,0.544c-0.197,0.104-0.439,0.063-0.595-0.099c-0.429-0.452-1.009-0.701-1.635-0.701c-1.169,0-2.145,0.891-2.221,2.028c-0.01,0.145-0.082,0.279-0.198,0.366c-0.116,0.088-0.264,0.119-0.407,0.089c-0.638-0.138-1.241-0.098-1.845,0.124c-1.262,0.464-2.144,1.632-2.195,2.906c-0.035,0.875,0.283,1.708,0.895,2.344c0.635,0.661,1.496,1.025,2.423,1.025h8.808c0.276,0,0.5,0.224,0.5,0.5s-0.224,0.5-0.5,0.5h-8.808c-1.185,0-2.331-0.485-3.145-1.332c-0.802-0.835-1.218-1.928-1.172-3.077c0.066-1.674,1.211-3.203,2.849-3.805c0.611-0.225,1.243-0.306,1.88-0.245c0.344-1.396,1.629-2.424,3.136-2.424c0.493,0,0.976,0.113,1.414,0.323c0.009-0.241,0.036-0.483,0.082-0.726c0.381-2.009,2.097-3.586,4.17-3.834c1.362-0.163,2.685,0.218,3.727,1.073c0.748,0.613,1.278,1.409,1.546,2.301c0.791-0.648,1.785-1.007,2.842-1.007c2.458,0,4.457,1.962,4.457,4.373c0,0.034,0,0.068-0.001,0.103c1.764,0.555,3.003,2.188,3.003,4.038C48.486,74.01,46.548,75.912,44.165,75.912z M34.507,75.912h-0.359c-0.276,0-0.5-0.224-0.5-0.5s0.224-0.5,0.5-0.5h0.359c0.276,0,0.5,0.224,0.5,0.5S34.783,75.912,34.507,75.912z"/><path fill="#472b29" d="M42.458 70.109c-.018 0-.036-.002-.055-.006-.135-.03-.219-.164-.189-.299.037-.166.094-.327.169-.479.604-1.224 2.274-1.675 3.722-1.007.125.058.18.207.122.332-.059.125-.206.179-.332.122-1.204-.555-2.578-.208-3.063.774-.058.117-.101.24-.129.367C42.676 70.03 42.572 70.109 42.458 70.109zM37.299 75.912h-1.107c-.276 0-.5-.224-.5-.5s.224-.5.5-.5h1.107c.276 0 .5.224.5.5S37.575 75.912 37.299 75.912z"/></svg>