<svg xmlns="http://www.w3.org/2000/svg"  viewBox="0 0 100 100" width="100px" height="100px"><path fill="#c7ede6" d="M87.215,56.71C88.35,54.555,89,52.105,89,49.5c0-6.621-4.159-12.257-10.001-14.478 C78.999,35.015,79,35.008,79,35c0-11.598-9.402-21-21-21c-9.784,0-17.981,6.701-20.313,15.757C36.211,29.272,34.638,29,33,29 c-7.692,0-14.023,5.793-14.89,13.252C12.906,43.353,9,47.969,9,53.5C9,59.851,14.149,65,20.5,65c0.177,0,0.352-0.012,0.526-0.022 C21.022,65.153,21,65.324,21,65.5C21,76.822,30.178,86,41.5,86c6.437,0,12.175-2.972,15.934-7.614C59.612,80.611,62.64,82,66,82 c4.65,0,8.674-2.65,10.666-6.518C77.718,75.817,78.837,76,80,76c6.075,0,11-4.925,11-11C91,61.689,89.53,58.727,87.215,56.71z"/><path fill="#fdfcef" d="M79.749,57.367c0,0,3.64,0,6.125,0s4.5-2.015,4.5-4.5c0-2.333-1.782-4.229-4.055-4.455 c0.022-0.181,0.055-0.358,0.055-0.545c0-2.485-2.015-4.5-4.5-4.5c-1.438,0-2.703,0.686-3.527,1.736 c-0.14-2.636-2.302-4.736-4.973-4.736c-2.761,0-5,2.239-5,5c0,0.446,0.077,0.87,0.187,1.282c-0.642-0.777-1.6-1.282-2.687-1.282 c-1.781,0-3.234,1.335-3.455,3.055c-0.181-0.022-0.358-0.055-0.545-0.055c-2.485,0-4.5,2.015-4.5,4.5s2.015,4.5,4.5,4.5 s9.5,0,9.5,0h5.375v0.5h3V57.367z"/><path fill="#472b29" d="M73.374,39.867c-3.033,0-5.5,2.467-5.5,5.5c0,0.016,0,0.031,0,0.047 c-0.602-0.354-1.29-0.547-2-0.547c-1.831,0-3.411,1.261-3.858,3.005c-0.047-0.003-0.094-0.005-0.142-0.005c-2.757,0-5,2.243-5,5 s2.243,5,5,5h14.875c0.276,0,0.5-0.224,0.5-0.5s-0.224-0.5-0.5-0.5H61.874c-2.206,0-4-1.794-4-4s1.794-4,4-4 c0.117,0,0.23,0.017,0.343,0.032l0.141,0.019c0.021,0.003,0.041,0.004,0.062,0.004c0.246,0,0.462-0.185,0.495-0.437 c0.191-1.493,1.463-2.618,2.959-2.618c0.885,0,1.723,0.401,2.301,1.1c0.098,0.118,0.241,0.182,0.386,0.182 c0.078,0,0.156-0.018,0.228-0.056c0.209-0.107,0.314-0.346,0.254-0.573c-0.116-0.436-0.17-0.802-0.17-1.153 c0-2.481,2.019-4.5,4.5-4.5c2.381,0,4.347,1.872,4.474,4.263c0.011,0.208,0.15,0.387,0.349,0.45 c0.05,0.016,0.101,0.024,0.152,0.024c0.15,0,0.296-0.069,0.392-0.192c0.771-0.981,1.913-1.544,3.133-1.544c2.206,0,4,1.794,4,4 c0,0.117-0.017,0.23-0.032,0.343l-0.019,0.141c-0.016,0.134,0.022,0.268,0.106,0.373c0.084,0.105,0.207,0.172,0.34,0.185 c2.055,0.205,3.604,1.906,3.604,3.958c0,2.206-1.794,4-4,4h-6.125c-0.276,0-0.5,0.224-0.5,0.5s0.224,0.5,0.5,0.5h6.125 c2.757,0,5-2.243,5-5c0-2.397-1.689-4.413-4.003-4.877c0.002-0.041,0.003-0.082,0.003-0.123c0-2.757-2.243-5-5-5 c-1.176,0-2.293,0.416-3.183,1.164C78.092,41.627,75.929,39.867,73.374,39.867L73.374,39.867z"/><path fill="#472b29" d="M71.874 46.867c-1.403 0-2.609.999-2.913 2.341-.367-.222-.786-.341-1.212-.341-1.202 0-2.198.897-2.353 2.068-.203-.045-.396-.068-.585-.068-1.529 0-2.811 1.2-2.918 2.732-.009.138.094.257.232.267.006 0 .012 0 .018 0 .13 0 .24-.101.249-.232.089-1.271 1.151-2.268 2.419-2.268.229 0 .47.042.738.127.022.007.045.01.067.01.055 0 .11-.02.156-.054.064-.047.102-.129.102-.209 0-1.034.841-1.875 1.875-1.875.447 0 .885.168 1.231.473.047.041.106.063.165.063.032 0 .063-.006.093-.019.088-.035.148-.117.155-.212.102-1.292 1.191-2.305 2.479-2.305.208 0 .425.034.682.107.023.007.047.01.07.01.109 0 .207-.073.239-.182.038-.133-.039-.271-.172-.309C72.39 46.907 72.13 46.867 71.874 46.867L71.874 46.867zM85.757 48.367c-1.326 0-2.508.897-2.874 2.182-.038.133.039.271.172.309.023.007.046.01.068.01.109 0 .209-.072.24-.182.305-1.071 1.289-1.818 2.393-1.818.117 0 .23.014.342.029.012.002.023.003.035.003.121 0 .229-.092.246-.217.019-.137-.077-.263-.214-.281C86.031 48.383 85.896 48.367 85.757 48.367L85.757 48.367z"/><path fill="#fff" d="M15.405 51H5.5C5.224 51 5 50.776 5 50.5S5.224 50 5.5 50h9.905c.276 0 .5.224.5.5S15.682 51 15.405 51zM18.5 51h-1c-.276 0-.5-.224-.5-.5s.224-.5.5-.5h1c.276 0 .5.224.5.5S18.777 51 18.5 51zM23.491 53H14.5c-.276 0-.5-.224-.5-.5s.224-.5.5-.5h8.991c.276 0 .5.224.5.5S23.767 53 23.491 53zM12.5 53h-1c-.276 0-.5-.224-.5-.5s.224-.5.5-.5h1c.276 0 .5.224.5.5S12.777 53 12.5 53zM9.5 53h-2C7.224 53 7 52.776 7 52.5S7.224 52 7.5 52h2c.276 0 .5.224.5.5S9.777 53 9.5 53zM15.5 55h-2c-.276 0-.5-.224-.5-.5s.224-.5.5-.5h2c.276 0 .5.224.5.5S15.776 55 15.5 55zM18.5 46c-.177 0-.823 0-1 0-.276 0-.5.224-.5.5 0 .276.224.5.5.5.177 0 .823 0 1 0 .276 0 .5-.224.5-.5C19 46.224 18.776 46 18.5 46zM18.5 48c-.177 0-4.823 0-5 0-.276 0-.5.224-.5.5 0 .276.224.5.5.5.177 0 4.823 0 5 0 .276 0 .5-.224.5-.5C19 48.224 18.776 48 18.5 48zM23.5 50c-.177 0-2.823 0-3 0-.276 0-.5.224-.5.5 0 .276.224.5.5.5.177 0 2.823 0 3 0 .276 0 .5-.224.5-.5C24 50.224 23.776 50 23.5 50z"/><g><path fill="#fff" d="M72.5 24h-10c-.276 0-.5-.224-.5-.5s.224-.5.5-.5h10c.276 0 .5.224.5.5S72.776 24 72.5 24zM76.5 24h-2c-.276 0-.5-.224-.5-.5s.224-.5.5-.5h2c.276 0 .5.224.5.5S76.776 24 76.5 24zM81.5 26h-10c-.276 0-.5-.224-.5-.5s.224-.5.5-.5h10c.276 0 .5.224.5.5S81.777 26 81.5 26zM69.5 26h-1c-.276 0-.5-.224-.5-.5s.224-.5.5-.5h1c.276 0 .5.224.5.5S69.776 26 69.5 26zM66.375 26H64.5c-.276 0-.5-.224-.5-.5s.224-.5.5-.5h1.875c.276 0 .5.224.5.5S66.651 26 66.375 26zM75.5 22h-5c-.276 0-.5-.224-.5-.5s.224-.5.5-.5h5c.276 0 .5.224.5.5S75.777 22 75.5 22zM72.5 28h-2c-.276 0-.5-.224-.5-.5s.224-.5.5-.5h2c.276 0 .5.224.5.5S72.776 28 72.5 28z"/></g><g><path fill="#fff" d="M68.276,67H48.155c-2.946,0-5.333-2.388-5.333-5.333V36.333c0-2.946,2.388-5.333,5.333-5.333h20.121 c2.946,0,5.333,2.388,5.333,5.333v25.333C73.61,64.612,71.222,67,68.276,67z"/><path fill="#39c2d8" d="M50.19,39.61c-0.55,3.36-0.88,6.78-0.97,10.19h4.28c0.19,0,0.38,0.08,0.51,0.22 c0.13,0.14,0.2,0.33,0.19,0.53c-0.17,2.62-0.17,5.28,0,7.9c0.18,2.73,0.55,5.46,1.1,8.15H58V68H33.44C30.99,68,29,66.01,29,63.56 V34.44c0-2.45,1.99-4.44,4.44-4.44H58v1.4h-5.97C51.26,34.1,50.64,36.85,50.19,39.61z"/><path fill="#472b29" d="M64.951 40.843c-.138 0-.25-.112-.25-.25v-2.957h-1.674c-.138 0-.25-.112-.25-.25s.112-.25.25-.25h1.924c.138 0 .25.112.25.25v3.207C65.201 40.73 65.089 40.843 64.951 40.843zM64.951 44.691c-.138 0-.25-.112-.25-.25v-1.925c0-.138.112-.25.25-.25s.25.112.25.25v1.925C65.201 44.579 65.089 44.691 64.951 44.691zM39.615 59.079c-.029 0-.06-.005-.088-.017-1.208-.456-2.403-.985-3.553-1.57-.123-.063-.172-.213-.109-.336.063-.124.215-.172.336-.109 1.134.577 2.313 1.098 3.503 1.549.129.049.194.192.146.322C39.811 59.018 39.716 59.079 39.615 59.079zM42.822 60.122c-.021 0-.044-.003-.066-.009-.644-.176-1.296-.374-1.938-.589-.131-.044-.201-.186-.157-.316s.187-.199.316-.158c.633.212 1.276.407 1.911.581.133.036.211.174.175.307C43.033 60.049 42.932 60.122 42.822 60.122zM47.954 61.126c-.01 0-.02-.001-.03-.002-1.084-.13-2.171-.311-3.229-.538-.135-.028-.221-.162-.192-.297.029-.135.162-.22.297-.191 1.044.224 2.115.402 3.185.53.137.017.235.141.218.277C48.186 61.032 48.078 61.126 47.954 61.126z"/><path fill="#472b29" d="M49.877,61.303c-0.005,0-0.011,0-0.016-0.001c-0.649-0.042-1.301-0.102-1.938-0.178 c-0.137-0.016-0.235-0.141-0.219-0.277c0.017-0.138,0.15-0.229,0.277-0.219c0.628,0.074,1.271,0.134,1.911,0.176 c0.138,0.009,0.242,0.128,0.233,0.266C50.118,61.201,50.008,61.303,49.877,61.303z"/><path fill="#472b29" d="M52.114,61.374c-0.213,0-0.425-0.002-0.638-0.006c-0.549-0.01-1.087-0.032-1.615-0.066 c-0.138-0.008-0.243-0.127-0.234-0.265s0.12-0.253,0.265-0.233c0.521,0.032,1.051,0.055,1.592,0.064 c2.011,0.035,4.05-0.104,6.05-0.418c0.128-0.021,0.264,0.071,0.286,0.208c0.021,0.137-0.072,0.265-0.208,0.286 C55.795,61.229,53.948,61.374,52.114,61.374z"/><path fill="#25262f" d="M60.781,60.289c-0.112,0-0.214-0.075-0.242-0.188c-0.034-0.134,0.047-0.271,0.181-0.304 c0.612-0.155,1.231-0.33,1.842-0.521c0.135-0.041,0.272,0.032,0.313,0.164s-0.032,0.271-0.164,0.313 c-0.62,0.193-1.249,0.371-1.869,0.528C60.822,60.287,60.801,60.289,60.781,60.289z"/><path fill="#472b29" d="M62.637,59.765c-0.106,0-0.205-0.068-0.239-0.176c-0.041-0.132,0.033-0.271,0.165-0.313 c1.889-0.59,3.734-1.34,5.482-2.229c0.123-0.062,0.273-0.014,0.336,0.109s0.014,0.273-0.109,0.336 c-1.773,0.902-3.644,1.663-5.56,2.261C62.687,59.761,62.661,59.765,62.637,59.765z"/><path fill="#472b29" d="M69.56,30H33.44C30.99,30,29,31.99,29,34.44v29.12c0,2.45,1.99,4.44,4.44,4.44h36.12 c2.45,0,4.44-1.99,4.44-4.44V34.44C74,31.99,72.01,30,69.56,30z M33.44,66.6c-1.68,0-3.04-1.36-3.04-3.04V34.44 c0-1.68,1.36-3.04,3.04-3.04h17.13c-0.73,2.63-1.31,5.31-1.76,7.99c-0.6,3.65-0.94,7.39-1.01,11.1c0,0.18,0.07,0.37,0.2,0.5 s0.31,0.21,0.5,0.21h4.26c-0.13,2.45-0.12,4.91,0.04,7.35c0.18,2.7,0.54,5.39,1.07,8.05H33.44z M72.6,63.56 c0,1.68-1.36,3.04-3.04,3.04H55.3c-0.55-2.69-0.92-5.42-1.1-8.15c-0.17-2.62-0.17-5.28,0-7.9c0.01-0.2-0.06-0.39-0.19-0.53 c-0.13-0.14-0.32-0.22-0.51-0.22h-4.28c0.09-3.41,0.42-6.83,0.97-10.19c0.45-2.76,1.07-5.51,1.84-8.21h17.53 c1.68,0,3.04,1.36,3.04,3.04V63.56z"/><path fill="#472b29" d="M40.5 44.2c-.387 0-.7-.313-.7-.7v-4c0-.387.313-.7.7-.7s.7.313.7.7v4C41.2 43.887 40.887 44.2 40.5 44.2zM62.5 44.2c-.387 0-.7-.313-.7-.7v-4c0-.387.313-.7.7-.7s.7.313.7.7v4C63.2 43.887 62.887 44.2 62.5 44.2zM52.007 59.235c-6.893 0-12.374-2.201-15.846-4.123-.338-.188-.461-.613-.273-.951.187-.338.612-.462.951-.273 3.566 1.974 9.343 4.255 16.628 3.913 4.754-.224 9.489-1.576 13.693-3.913.336-.187.764-.065.952.272.188.338.066.764-.272.952-4.391 2.44-9.338 3.854-14.307 4.087C53.017 59.224 52.508 59.235 52.007 59.235zM32.5 44.75c-.138 0-.25-.112-.25-.25v-1.25c0-.138.112-.25.25-.25s.25.112.25.25v1.25C32.75 44.638 32.638 44.75 32.5 44.75zM32.5 42c-.138 0-.25-.112-.25-.25V39c0-.138.112-.25.25-.25s.25.112.25.25v2.75C32.75 41.888 32.638 42 32.5 42zM32.5 37.75c-.138 0-.25-.112-.25-.25v-4c0-.138.112-.25.25-.25h10c.138 0 .25.112.25.25s-.112.25-.25.25h-9.75v3.75C32.75 37.638 32.638 37.75 32.5 37.75z"/></g><g><path fill="#fdfcef" d="M35.5,72.5c0,0,1.567,0,3.5,0s3.5-1.567,3.5-3.5c0-1.781-1.335-3.234-3.055-3.455 C39.473,65.366,39.5,65.187,39.5,65c0-1.933-1.567-3.5-3.5-3.5c-1.032,0-1.95,0.455-2.59,1.165 c-0.384-1.808-1.987-3.165-3.91-3.165c-2.209,0-4,1.791-4,4c0,0.191,0.03,0.374,0.056,0.558C25.128,63.714,24.592,63.5,24,63.5 c-1.228,0-2.245,0.887-2.455,2.055C21.366,65.527,21.187,65.5,21,65.5c-1.933,0-3.5,1.567-3.5,3.5s1.567,3.5,3.5,3.5s7.5,0,7.5,0 V73h7V72.5z"/><path fill="#472b29" d="M37.25 68C37.112 68 37 67.888 37 67.75c0-1.223.995-2.218 2.218-2.218.034.009.737-.001 1.244.136.133.036.212.173.176.306-.036.134-.173.213-.306.176-.444-.12-1.1-.12-1.113-.118-.948 0-1.719.771-1.719 1.718C37.5 67.888 37.388 68 37.25 68zM30.5 72A.5.5 0 1 0 30.5 73 .5.5 0 1 0 30.5 72z"/><path fill="#472b29" d="M39,73h-3.5c-0.276,0-0.5-0.224-0.5-0.5s0.224-0.5,0.5-0.5H39c1.654,0,3-1.346,3-3 c0-1.496-1.125-2.768-2.618-2.959c-0.134-0.018-0.255-0.088-0.336-0.196s-0.115-0.244-0.094-0.377C38.975,65.314,39,65.16,39,65 c0-1.654-1.346-3-3-3c-0.85,0-1.638,0.355-2.219,1c-0.125,0.139-0.321,0.198-0.5,0.148c-0.182-0.049-0.321-0.195-0.36-0.379 C32.58,61.165,31.141,60,29.5,60c-1.93,0-3.5,1.57-3.5,3.5c0,0.143,0.021,0.28,0.041,0.418c0.029,0.203-0.063,0.438-0.242,0.54 c-0.179,0.102-0.396,0.118-0.556-0.01C24.878,64.155,24.449,64,24,64c-0.966,0-1.792,0.691-1.963,1.644 c-0.048,0.267-0.296,0.446-0.569,0.405C21.314,66.025,21.16,66,21,66c-1.654,0-3,1.346-3,3s1.346,3,3,3h7.5 c0.276,0,0.5,0.224,0.5,0.5S28.776,73,28.5,73H21c-2.206,0-4-1.794-4-4s1.794-4,4-4c0.059,0,0.116,0.002,0.174,0.006 C21.588,63.82,22.711,63,24,63c0.349,0,0.689,0.061,1.011,0.18C25.176,60.847,27.126,59,29.5,59c1.831,0,3.466,1.127,4.153,2.774 C34.333,61.276,35.155,61,36,61c2.206,0,4,1.794,4,4c0,0.048-0.001,0.095-0.004,0.142C41.739,65.59,43,67.169,43,69 C43,71.206,41.206,73,39,73z"/><path fill="#472b29" d="M33.5,72c-0.159,0-0.841,0-1,0c-0.276,0-0.5,0.224-0.5,0.5c0,0.276,0.224,0.5,0.5,0.5 c0.159,0,0.841,0,1,0c0.276,0,0.5-0.224,0.5-0.5C34,72.224,33.776,72,33.5,72z"/></g></svg>