<svg xmlns="http://www.w3.org/2000/svg"  viewBox="0 0 64 64" width="64px" height="64px"><radialGradient id="HE0mX51MrIEkfWn~OmPXSa" cx="32.375" cy="424.431" r="49.78" gradientTransform="matrix(1 0 0 -1 0 460)" gradientUnits="userSpaceOnUse"><stop offset="0" stop-color="#afeeff"/><stop offset=".193" stop-color="#bbf1ff"/><stop offset=".703" stop-color="#d7f8ff"/><stop offset="1" stop-color="#e1faff"/></radialGradient><path fill="url(#HE0mX51MrIEkfWn~OmPXSa)" d="M60,44H45l-2.6-1h6.012c1.138,0,2.202-0.721,2.497-1.821C51.355,39.516,50.096,38,48.5,38	c-0.828,0-1.5-0.672-1.5-1.5s0.672-1.5,1.5-1.5h2.912c1.139,0,2.202-0.721,2.497-1.821C54.355,31.516,53.096,29,51.5,29H51	c-1.105,0-2-0.895-2-2s0.895-2,2-2h9.412c1.139,0,2.202-0.721,2.497-1.821C63.355,21.516,62.096,20,60.5,20H59c-1.105,0-2-0.895-2-2	s0.895-2,2-2h2c1.848,0,3.319-1.693,2.94-3.605C63.657,10.972,62.32,10,60.869,10H50.5C49.672,10,49,9.328,49,8.5S49.672,7,50.5,7	h5.912c1.139,0,2.202-0.721,2.497-1.821C59.355,3.516,58.096,2,56.5,2H10.588C9.449,2,8.386,2.721,8.091,3.821	C7.645,5.484,8.904,7,10.5,7l0,0C11.881,7,13,8.119,13,9.5S11.881,12,10.5,12H9.588H7c-1.65,0-3,1.35-3,3s1.35,3,3,3h19	c0.352,0,0.685-0.073,1-0.185V29h-7.412c-1.139,0-2.202,1.721-2.497,2.821c-0.219,0.817-0.024,1.595,0.418,2.179H3.5	C2.119,34,1,35.119,1,36.5S2.119,39,3.5,39h1C5.881,39,7,40.119,7,41.5S5.881,44,4.5,44H4c-1.657,0-3,1.343-3,3s1.343,3,3,3h5.5	c1.381,0,2.5,1.119,2.5,2.5S10.881,55,9.5,55H8c-1.657,0-3,1.343-3,3s1.343,3,3,3h48c1.657,0,3-1.343,3-3s-1.343-3-3-3h-0.5	c-1.381,0-2.5-1.119-2.5-2.5s1.119-2.5,2.5-2.5H60c1.657,0,3-1.343,3-3S61.657,44,60,44z"/><path fill="#ffc107" d="M32,6v25l10,5L30.946,56c0.396,0,0.657,0,1.054,0c13.816,0,25-11.184,25-25S45.816,6,32,6z"/><linearGradient id="HE0mX51MrIEkfWn~OmPXSb" x1="25.623" x2="25.623" y1="55.5" y2="19.999" gradientUnits="userSpaceOnUse"><stop offset="0" stop-color="#42d778"/><stop offset=".428" stop-color="#3dca76"/><stop offset="1" stop-color="#34b171"/></linearGradient><path fill="url(#HE0mX51MrIEkfWn~OmPXSb)" d="M32,56c-0.371,0-0.74-0.008-1.106-0.024C17.602,55.397,7,44.434,7,31	c0-4.957,1.443-9.577,3.933-13.464c2.191-3.421,24.703,3.887,31.112,14.201C48.631,42.337,38.997,56,32,56z"/><linearGradient id="HE0mX51MrIEkfWn~OmPXSc" x1="43.973" x2="43.973" y1="7.25" y2="56.75" gradientUnits="userSpaceOnUse"><stop offset="0" stop-color="#feaa53"/><stop offset=".612" stop-color="#ffcd49"/><stop offset="1" stop-color="#ffde44"/></linearGradient><path fill="url(#HE0mX51MrIEkfWn~OmPXSc)" d="M32,6v25l10,5L30.946,56c0.396,0,0.657,0,1.054,0c13.816,0,25-11.184,25-25S45.816,6,32,6z"/><linearGradient id="HE0mX51MrIEkfWn~OmPXSd" x1="32.612" x2="32.612" y1="5.25" y2="32" gradientUnits="userSpaceOnUse"><stop offset="0" stop-color="#ff5840"/><stop offset=".007" stop-color="#ff5840"/><stop offset=".989" stop-color="#fa528c"/><stop offset="1" stop-color="#fa528c"/></linearGradient><path fill="url(#HE0mX51MrIEkfWn~OmPXSd)" d="M54.3,19.75H32V36l-3.75-1.25l-17.3-17.175h-0.025C15.35,10.613,23.138,6,32,6	C41.75,6,50.187,11.6,54.3,19.75z"/><path fill="#fff" d="M44,31c0,6.625-5.375,12-12,12s-12-5.375-12-12s5.375-12,12-12S44,24.375,44,31z"/><linearGradient id="HE0mX51MrIEkfWn~OmPXSe" x1="32" x2="32" y1="9" y2="51" gradientUnits="userSpaceOnUse"><stop offset="0" stop-color="#155cde"/><stop offset=".278" stop-color="#1f7fe5"/><stop offset=".569" stop-color="#279ceb"/><stop offset=".82" stop-color="#2cafef"/><stop offset="1" stop-color="#2eb5f0"/></linearGradient><path fill="url(#HE0mX51MrIEkfWn~OmPXSe)" d="M41,31c0,4.972-4.028,9-9,9s-9-4.028-9-9s4.028-9,9-9S41,26.028,41,31z"/></svg>