<svg xmlns="http://www.w3.org/2000/svg"  viewBox="0 0 100 100" width="100px" height="100px"><path fill="#c7ede6" d="M86.215,53.71C87.35,51.555,88,49.105,88,46.5c0-6.621-4.159-12.257-10.001-14.478 C77.999,32.015,78,32.008,78,32c0-11.598-9.402-21-21-21c-9.784,0-17.981,6.701-20.313,15.757C35.211,26.272,33.638,26,32,26 c-7.692,0-14.023,5.793-14.89,13.252C11.906,40.353,8,44.969,8,50.5C8,56.851,13.149,62,19.5,62c0.177,0,0.352-0.012,0.526-0.022 C20.022,62.153,20,62.324,20,62.5C20,73.822,29.178,83,40.5,83c6.437,0,12.175-2.972,15.934-7.614C58.612,77.611,61.64,79,65,79 c4.65,0,8.674-2.65,10.666-6.518C76.718,72.817,77.837,73,79,73c6.075,0,11-4.925,11-11C90,58.689,88.53,55.727,86.215,53.71z"/><path fill="#fff" d="M15.405,51H5.5C5.224,51,5,50.776,5,50.5S5.224,50,5.5,50h9.905c0.276,0,0.5,0.224,0.5,0.5 S15.682,51,15.405,51z"/><path fill="#fff" d="M18.5,51h-1c-0.276,0-0.5-0.224-0.5-0.5s0.224-0.5,0.5-0.5h1c0.276,0,0.5,0.224,0.5,0.5 S18.777,51,18.5,51z"/><path fill="#fff" d="M23.491,53H14.5c-0.276,0-0.5-0.224-0.5-0.5s0.224-0.5,0.5-0.5h8.991c0.276,0,0.5,0.224,0.5,0.5 S23.767,53,23.491,53z"/><path fill="#fff" d="M12.5,53h-1c-0.276,0-0.5-0.224-0.5-0.5s0.224-0.5,0.5-0.5h1c0.276,0,0.5,0.224,0.5,0.5 S12.777,53,12.5,53z"/><path fill="#fff" d="M9.5,53h-2C7.224,53,7,52.776,7,52.5S7.224,52,7.5,52h2c0.276,0,0.5,0.224,0.5,0.5S9.777,53,9.5,53 z"/><path fill="#fff" d="M15.5,55h-2c-0.276,0-0.5-0.224-0.5-0.5s0.224-0.5,0.5-0.5h2c0.276,0,0.5,0.224,0.5,0.5 S15.776,55,15.5,55z"/><path fill="#fff" d="M18.5,46c-0.177,0-0.823,0-1,0c-0.276,0-0.5,0.224-0.5,0.5c0,0.276,0.224,0.5,0.5,0.5 c0.177,0,0.823,0,1,0c0.276,0,0.5-0.224,0.5-0.5C19,46.224,18.776,46,18.5,46z"/><path fill="#fff" d="M18.5,48c-0.177,0-4.823,0-5,0c-0.276,0-0.5,0.224-0.5,0.5c0,0.276,0.224,0.5,0.5,0.5 c0.177,0,4.823,0,5,0c0.276,0,0.5-0.224,0.5-0.5C19,48.224,18.776,48,18.5,48z"/><path fill="#fff" d="M23.5,50c-0.177,0-2.823,0-3,0c-0.276,0-0.5,0.224-0.5,0.5c0,0.276,0.224,0.5,0.5,0.5 c0.177,0,2.823,0,3,0c0.276,0,0.5-0.224,0.5-0.5C24,50.224,23.776,50,23.5,50z"/><path fill="#fff" d="M72.5,24h-10c-0.276,0-0.5-0.224-0.5-0.5s0.224-0.5,0.5-0.5h10c0.276,0,0.5,0.224,0.5,0.5 S72.776,24,72.5,24z"/><path fill="#fff" d="M76.5,24h-2c-0.276,0-0.5-0.224-0.5-0.5s0.224-0.5,0.5-0.5h2c0.276,0,0.5,0.224,0.5,0.5 S76.776,24,76.5,24z"/><path fill="#fff" d="M81.5,26h-10c-0.276,0-0.5-0.224-0.5-0.5s0.224-0.5,0.5-0.5h10c0.276,0,0.5,0.224,0.5,0.5 S81.777,26,81.5,26z"/><path fill="#fff" d="M69.5,26h-1c-0.276,0-0.5-0.224-0.5-0.5s0.224-0.5,0.5-0.5h1c0.276,0,0.5,0.224,0.5,0.5 S69.776,26,69.5,26z"/><path fill="#fff" d="M66.375,26H64.5c-0.276,0-0.5-0.224-0.5-0.5s0.224-0.5,0.5-0.5h1.875c0.276,0,0.5,0.224,0.5,0.5 S66.651,26,66.375,26z"/><path fill="#fff" d="M75.5,22h-5c-0.276,0-0.5-0.224-0.5-0.5s0.224-0.5,0.5-0.5h5c0.276,0,0.5,0.224,0.5,0.5 S75.777,22,75.5,22z"/><path fill="#fff" d="M72.5,28h-2c-0.276,0-0.5-0.224-0.5-0.5s0.224-0.5,0.5-0.5h2c0.276,0,0.5,0.224,0.5,0.5 S72.776,28,72.5,28z"/><path fill="#fdfcef" d="M76.875,55.338c0,0,3.64,0,6.125,0s4.5-2.015,4.5-4.5c0-2.333-1.782-4.229-4.055-4.455 c0.022-0.181,0.055-0.358,0.055-0.545c0-2.485-2.015-4.5-4.5-4.5c-1.438,0-2.703,0.686-3.527,1.736 c-0.14-2.636-2.302-4.736-4.973-4.736c-2.761,0-5,2.239-5,5c0,0.446,0.077,0.87,0.187,1.282c-0.642-0.777-1.6-1.282-2.687-1.282 c-1.781,0-3.234,1.335-3.455,3.055c-0.181-0.022-0.358-0.055-0.545-0.055c-2.485,0-4.5,2.015-4.5,4.5s2.015,4.5,4.5,4.5 s9.5,0,9.5,0h5.375v0.5h3V55.338z"/><path fill="#472b29" d="M70.5,37.838c-3.033,0-5.5,2.467-5.5,5.5c0,0.016,0,0.031,0,0.047c-0.602-0.354-1.29-0.547-2-0.547 c-1.831,0-3.411,1.261-3.858,3.005c-0.047-0.003-0.094-0.005-0.142-0.005c-2.757,0-5,2.243-5,5s2.243,5,5,5h14.875 c0.276,0,0.5-0.224,0.5-0.5s-0.224-0.5-0.5-0.5H59c-2.206,0-4-1.794-4-4s1.794-4,4-4c0.117,0,0.23,0.017,0.343,0.032l0.141,0.019 c0.021,0.003,0.041,0.004,0.062,0.004c0.246,0,0.462-0.185,0.495-0.437c0.191-1.493,1.463-2.618,2.959-2.618 c0.885,0,1.723,0.401,2.301,1.1c0.098,0.118,0.241,0.182,0.386,0.182c0.078,0,0.156-0.018,0.228-0.056 c0.209-0.107,0.314-0.346,0.254-0.573C66.054,44.055,66,43.689,66,43.338c0-2.481,2.019-4.5,4.5-4.5 c2.381,0,4.347,1.872,4.474,4.263c0.011,0.208,0.15,0.387,0.349,0.45c0.05,0.016,0.101,0.024,0.152,0.024 c0.15,0,0.296-0.069,0.392-0.192c0.771-0.981,1.913-1.544,3.133-1.544c2.206,0,4,1.794,4,4c0,0.117-0.017,0.23-0.032,0.343 l-0.019,0.141c-0.016,0.134,0.022,0.268,0.106,0.373c0.084,0.105,0.207,0.172,0.34,0.185C85.451,47.085,87,48.786,87,50.838 c0,2.206-1.794,4-4,4h-6.125c-0.276,0-0.5,0.224-0.5,0.5s0.224,0.5,0.5,0.5H83c2.757,0,5-2.243,5-5 c0-2.397-1.689-4.413-4.003-4.877C83.999,45.92,84,45.879,84,45.838c0-2.757-2.243-5-5-5c-1.176,0-2.293,0.416-3.183,1.164 C75.219,39.598,73.055,37.838,70.5,37.838L70.5,37.838z"/><path fill="#472b29" d="M69,44.838c-1.403,0-2.609,0.999-2.913,2.341c-0.367-0.222-0.786-0.341-1.212-0.341 c-1.202,0-2.198,0.897-2.353,2.068c-0.203-0.045-0.396-0.068-0.585-0.068c-1.529,0-2.811,1.2-2.918,2.732 c-0.009,0.138,0.094,0.257,0.232,0.267c0.006,0,0.012,0,0.018,0c0.13,0,0.24-0.101,0.249-0.232 c0.089-1.271,1.151-2.268,2.419-2.268c0.229,0,0.47,0.042,0.738,0.127c0.022,0.007,0.045,0.01,0.067,0.01 c0.055,0,0.11-0.02,0.156-0.054C62.962,49.375,63,49.292,63,49.213c0-1.034,0.841-1.875,1.875-1.875 c0.447,0,0.885,0.168,1.231,0.473c0.047,0.041,0.106,0.063,0.165,0.063c0.032,0,0.063-0.006,0.093-0.019 c0.088-0.035,0.148-0.117,0.155-0.212c0.102-1.292,1.191-2.305,2.479-2.305c0.208,0,0.425,0.034,0.682,0.107 c0.023,0.007,0.047,0.01,0.07,0.01c0.109,0,0.207-0.073,0.239-0.182c0.038-0.133-0.039-0.271-0.172-0.309 C69.517,44.878,69.256,44.838,69,44.838L69,44.838z"/><path fill="#472b29" d="M82.883,46.338c-1.326,0-2.508,0.897-2.874,2.182c-0.038,0.133,0.039,0.271,0.172,0.309 c0.023,0.007,0.046,0.01,0.068,0.01c0.109,0,0.209-0.072,0.24-0.182c0.305-1.071,1.289-1.818,2.393-1.818 c0.117,0,0.23,0.014,0.342,0.029c0.012,0.002,0.023,0.003,0.035,0.003c0.121,0,0.229-0.092,0.246-0.217 c0.019-0.137-0.077-0.263-0.214-0.281C83.158,46.353,83.022,46.338,82.883,46.338L82.883,46.338z"/><g><polygon fill="#fc7c59" points="24.5,26.5 24.5,59.5 32.5,69.875 32.5,35.5"/><path fill="#472b29" d="M32.5,70.575c-0.213,0-0.419-0.098-0.554-0.272l-8-10.375C23.851,59.805,23.8,59.654,23.8,59.5v-33 c0-0.291,0.18-0.551,0.452-0.654c0.269-0.104,0.578-0.028,0.771,0.189l8,9c0.114,0.128,0.177,0.293,0.177,0.465v34.375 c0,0.3-0.191,0.566-0.475,0.662C32.652,70.563,32.576,70.575,32.5,70.575z M25.2,59.262l6.6,8.56V35.766l-6.6-7.425V59.262z"/></g><g><polygon fill="#f9eaeb" points="32.5,35.5 68.5,33.5 56.5,25.5 24.5,26.5"/><path fill="#472b29" d="M32.5,36.2c-0.199,0-0.39-0.085-0.523-0.235l-8-9c-0.181-0.203-0.228-0.492-0.12-0.742 s0.35-0.415,0.621-0.423l32-1c0.15,0.001,0.289,0.037,0.41,0.117l12,8c0.251,0.167,0.366,0.476,0.287,0.767 c-0.079,0.291-0.335,0.498-0.636,0.515l-36,2C32.526,36.2,32.513,36.2,32.5,36.2z M26.017,27.153l6.782,7.629l33.565-1.865 l-10.066-6.711L26.017,27.153z"/></g><g><path fill="#f9dac0" d="M34.392,35.398l33-1.784c1.145-0.062,2.108,0.85,2.108,1.997v31.994c0,1.063-0.831,1.94-1.892,1.997 l-33,1.784c-1.145,0.062-2.108-0.85-2.108-1.997V37.395C32.5,36.332,33.331,35.455,34.392,35.398z"/><path fill="#472b29" d="M34.494,72.089c-0.692,0-1.344-0.26-1.851-0.739C32.1,70.835,31.8,70.138,31.8,69.389V37.395 c0-1.435,1.122-2.619,2.555-2.696l33-1.784c0.752-0.04,1.459,0.222,2.003,0.737s0.843,1.211,0.843,1.959v31.995 c0,1.434-1.122,2.618-2.554,2.696l-33,1.783C34.595,72.088,34.544,72.089,34.494,72.089z M67.502,34.311 c-0.024,0-0.048,0-0.072,0.002l-33,1.784l0,0c-0.689,0.037-1.229,0.607-1.229,1.298v31.994c0,0.361,0.144,0.696,0.406,0.944 s0.603,0.381,0.964,0.354l33-1.783c0.689-0.037,1.229-0.607,1.229-1.298V35.611c0-0.36-0.144-0.695-0.405-0.943 C68.15,34.436,67.835,34.311,67.502,34.311z M34.392,35.398h0.01H34.392z"/></g><g><path fill="#472b29" d="M47.5,68c-0.26,0-0.479-0.201-0.498-0.465c-0.02-0.275,0.188-0.515,0.463-0.534l14-1 c0.277-0.028,0.515,0.188,0.534,0.464c0.02,0.275-0.188,0.515-0.463,0.534l-14,1C47.523,68,47.511,68,47.5,68z"/></g><g><path fill="#472b29" d="M64.5,67h-1c-0.276,0-0.5-0.224-0.5-0.5s0.224-0.5,0.5-0.5h1c0.276,0,0.5,0.224,0.5,0.5 S64.776,67,64.5,67z"/></g><g><path fill="#472b29" d="M66.5,66.125c-0.276,0-0.5-0.224-0.5-0.5V37.5c0-0.276,0.224-0.5,0.5-0.5s0.5,0.224,0.5,0.5v28.125 C67,65.901,66.776,66.125,66.5,66.125z"/></g><g><path fill="#472b29" d="M44,38.806c-0.263,0-0.484-0.206-0.499-0.472c-0.016-0.276,0.196-0.512,0.471-0.527l14.25-0.792 c0.289-0.027,0.511,0.195,0.527,0.471s-0.196,0.512-0.471,0.527l-14.25,0.792C44.018,38.806,44.009,38.806,44,38.806z"/></g><g><path fill="#472b29" d="M40.5,39c-0.263,0-0.484-0.206-0.499-0.472c-0.016-0.276,0.195-0.512,0.471-0.527l1.5-0.083 c0.263-0.013,0.512,0.195,0.527,0.471c0.016,0.276-0.195,0.512-0.471,0.527l-1.5,0.083C40.519,39,40.509,39,40.5,39z"/></g><g><path fill="#472b29" d="M35.5,65c-0.276,0-0.5-0.224-0.5-0.5v-26c0-0.136,0.055-0.266,0.153-0.36 c0.098-0.094,0.215-0.149,0.366-0.139l2.625,0.102c0.276,0.011,0.491,0.243,0.48,0.519c-0.01,0.276-0.231,0.508-0.519,0.48 L36,39.02V64.5C36,64.776,35.776,65,35.5,65z"/></g><g><path fill="#472b29" d="M45.375,32.597c-0.268,0-0.489-0.212-0.499-0.481c-0.01-0.276,0.205-0.508,0.481-0.518l1.75-0.065 c0.277-0.021,0.508,0.205,0.518,0.481c0.01,0.276-0.205,0.508-0.481,0.518l-1.75,0.065C45.387,32.597,45.381,32.597,45.375,32.597z"/></g><g><path fill="#472b29" d="M49,32.463c-0.268,0-0.489-0.212-0.499-0.481c-0.01-0.276,0.205-0.508,0.481-0.518l10.803-0.4 l-4.257-2.526l-1.103,0.042c-0.243,0.023-0.508-0.204-0.519-0.48c-0.011-0.276,0.205-0.508,0.48-0.519l1.25-0.048 c0.095-0.009,0.191,0.02,0.274,0.069l5.844,3.469c0.19,0.113,0.284,0.339,0.229,0.554S61.74,31.991,61.519,32l-12.5,0.463 C49.012,32.463,49.006,32.463,49,32.463z"/></g><g><path fill="#472b29" d="M35.072,29.366c-0.268,0-0.49-0.213-0.499-0.483c-0.01-0.276,0.207-0.507,0.482-0.517l16.615-0.572 c0.268-0.032,0.507,0.207,0.517,0.482c0.01,0.276-0.207,0.507-0.482,0.517l-16.615,0.572 C35.083,29.366,35.078,29.366,35.072,29.366z"/></g><g><path fill="#472b29" d="M33.688,33.188c-0.137,0-0.268-0.056-0.363-0.156l-3.439-3.622 c-0.136-0.144-0.175-0.354-0.099-0.536c0.076-0.183,0.252-0.303,0.45-0.308l2.814-0.065c0.25-0.021,0.505,0.212,0.512,0.488 c0.006,0.276-0.212,0.505-0.488,0.512l-1.687,0.039l2.502,2.636l6.956-0.41c0.27-0.013,0.512,0.194,0.528,0.47 c0.017,0.275-0.194,0.512-0.47,0.528l-7.188,0.424C33.707,33.187,33.697,33.188,33.688,33.188z"/></g><g><path fill="#472b29" d="M29.5,62.375c-0.153,0-0.302-0.071-0.398-0.198l-3-3.958C26.036,58.132,26,58.026,26,57.917V41.75 c0-0.276,0.224-0.5,0.5-0.5s0.5,0.224,0.5,0.5v15.999l2,2.639V37.305l-2-2.417V39.5c0,0.276-0.224,0.5-0.5,0.5S26,39.776,26,39.5 v-6c0-0.211,0.132-0.399,0.331-0.47c0.199-0.071,0.42-0.012,0.555,0.151l3,3.625C29.959,36.896,30,37.009,30,37.125v24.75 c0,0.215-0.137,0.405-0.341,0.474C29.607,62.366,29.553,62.375,29.5,62.375z"/></g><g><path fill="#fc7c59" d="M41.5,62.5V44.688l-2,0.047c0,0,0.012-3.185,2-3.401c2.104-0.229,7-0.313,7-0.313l10,15.479V42.672 l-3,0.203c0,0,0.007-2.459,2-2.625c2.191-0.183,5.898-0.453,5.898-0.453s0.477,2.469-1.898,2.469V63.5c0,0-5.338,1.482-7.338-1.518 c-2-3-8.662-14.482-8.662-14.482v14l3,1c0,0-0.123,1.927-2.115,2.115C44.12,64.828,38.5,65.5,38.5,65.5S38.5,62.5,41.5,62.5z"/><path fill="#472b29" d="M38.5,65.75c-0.061,0-0.12-0.022-0.166-0.063c-0.053-0.047-0.084-0.115-0.084-0.187 c0-0.031,0.035-3.081,3-3.243V44.943l-1.744,0.041c-0.071,0-0.133-0.024-0.181-0.071c-0.048-0.047-0.076-0.112-0.075-0.18 c0-0.139,0.038-3.411,2.223-3.648c2.091-0.228,6.974-0.313,7.022-0.314c0.111,0.014,0.167,0.042,0.214,0.114l9.54,14.767V42.939 l-2.733,0.185c-0.074,0.009-0.138-0.02-0.188-0.067c-0.051-0.048-0.079-0.114-0.079-0.183c0.002-0.93,0.472-2.727,2.229-2.874 c2.192-0.183,5.901-0.454,5.901-0.454c0.12-0.006,0.239,0.078,0.264,0.202c0.01,0.051,0.234,1.264-0.436,2.076 c-0.335,0.406-0.825,0.634-1.458,0.681V63.5c0,0.112-0.075,0.211-0.183,0.241c-0.224,0.063-5.536,1.494-7.613-1.62 c-1.673-2.509-6.653-11.03-8.204-13.694v12.892l2.829,0.943c0.107,0.036,0.178,0.14,0.17,0.253 c-0.001,0.021-0.163,2.143-2.341,2.348c-2.236,0.211-7.823,0.878-7.879,0.885C38.52,65.749,38.51,65.75,38.5,65.75z M41.5,44.438 c0.065,0,0.128,0.025,0.175,0.071c0.048,0.047,0.075,0.111,0.075,0.179V62.5c0,0.138-0.112,0.25-0.25,0.25 c-2.221,0-2.648,1.761-2.73,2.466c1.195-0.142,5.65-0.667,7.592-0.851c1.426-0.134,1.778-1.242,1.863-1.693l-2.804-0.935 c-0.102-0.034-0.171-0.13-0.171-0.237v-14c0-0.113,0.076-0.212,0.185-0.241c0.11-0.03,0.225,0.018,0.281,0.116 c0.066,0.115,6.681,11.51,8.654,14.469c1.673,2.511,5.942,1.679,6.88,1.461V42.266c0-0.138,0.112-0.25,0.25-0.25 c0.599,0,1.044-0.171,1.322-0.508c0.375-0.454,0.383-1.107,0.356-1.444c-0.851,0.063-3.799,0.28-5.658,0.436 c-1.395,0.117-1.691,1.508-1.754,2.107l2.716-0.184c0.076-0.004,0.137,0.02,0.188,0.067c0.05,0.047,0.079,0.113,0.079,0.183V56.5 c0,0.11-0.073,0.208-0.179,0.24c-0.106,0.032-0.22-0.012-0.281-0.104l-9.924-15.362c-0.812,0.016-4.967,0.104-6.838,0.309 c-1.438,0.156-1.712,2.171-1.765,2.896l1.732-0.041C41.496,44.438,41.498,44.438,41.5,44.438z"/></g><g><path fill="#fdfcef" d="M33,75c0,0,1.567,0,3.5,0s3.5-1.567,3.5-3.5c0-1.781-1.335-3.234-3.055-3.455 C36.973,67.866,37,67.687,37,67.5c0-1.933-1.567-3.5-3.5-3.5c-1.032,0-1.95,0.455-2.59,1.165C30.525,63.357,28.922,62,27,62 c-2.209,0-4,1.791-4,4c0,0.191,0.03,0.374,0.056,0.558C22.628,66.214,22.092,66,21.5,66c-1.228,0-2.245,0.887-2.455,2.055 C18.866,68.027,18.687,68,18.5,68c-1.933,0-3.5,1.567-3.5,3.5s1.567,3.5,3.5,3.5s7.5,0,7.5,0v0.5h7V75z"/><path fill="#472b29" d="M34.75,70.5c-0.138,0-0.25-0.112-0.25-0.25c0-1.223,0.995-2.218,2.218-2.218 c0.034,0.009,0.737-0.001,1.244,0.136c0.133,0.036,0.212,0.173,0.176,0.306c-0.036,0.134-0.173,0.213-0.306,0.176 c-0.444-0.12-1.1-0.12-1.113-0.118c-0.948,0-1.719,0.771-1.719,1.718C35,70.388,34.888,70.5,34.75,70.5z"/><circle cx="28" cy="75" r=".5" fill="#472b29"/><path fill="#472b29" d="M36.5,75.5H33c-0.276,0-0.5-0.224-0.5-0.5s0.224-0.5,0.5-0.5h3.5c1.654,0,3-1.346,3-3 c0-1.496-1.125-2.768-2.618-2.959c-0.134-0.018-0.255-0.088-0.336-0.196s-0.115-0.244-0.094-0.377 C36.475,67.814,36.5,67.66,36.5,67.5c0-1.654-1.346-3-3-3c-0.85,0-1.638,0.355-2.219,1c-0.125,0.139-0.321,0.198-0.5,0.148 c-0.182-0.049-0.321-0.195-0.36-0.379C30.08,63.665,28.641,62.5,27,62.5c-1.93,0-3.5,1.57-3.5,3.5c0,0.143,0.021,0.28,0.041,0.418 c0.029,0.203-0.063,0.438-0.242,0.54c-0.179,0.102-0.396,0.118-0.556-0.01C22.378,66.655,21.949,66.5,21.5,66.5 c-0.966,0-1.792,0.691-1.963,1.644c-0.048,0.267-0.296,0.446-0.569,0.405C18.814,68.525,18.66,68.5,18.5,68.5 c-1.654,0-3,1.346-3,3s1.346,3,3,3H26c0.276,0,0.5,0.224,0.5,0.5s-0.224,0.5-0.5,0.5h-7.5c-2.206,0-4-1.794-4-4s1.794-4,4-4 c0.059,0,0.116,0.002,0.174,0.006C19.088,66.32,20.211,65.5,21.5,65.5c0.349,0,0.689,0.061,1.011,0.18 c0.165-2.333,2.115-4.18,4.489-4.18c1.831,0,3.466,1.127,4.153,2.774c0.68-0.499,1.502-0.774,2.347-0.774c2.206,0,4,1.794,4,4 c0,0.048-0.001,0.095-0.004,0.142C39.239,68.09,40.5,69.669,40.5,71.5C40.5,73.706,38.706,75.5,36.5,75.5z"/><path fill="#472b29" d="M31,74.5c-0.159,0-0.841,0-1,0c-0.276,0-0.5,0.224-0.5,0.5c0,0.276,0.224,0.5,0.5,0.5 c0.159,0,0.841,0,1,0c0.276,0,0.5-0.224,0.5-0.5C31.5,74.724,31.276,74.5,31,74.5z"/></g></svg>