<svg xmlns="http://www.w3.org/2000/svg"  viewBox="0 0 100 100" width="100px" height="100px"><path fill="#c7ede6" d="M87.215,56.71C88.35,54.555,89,52.105,89,49.5c0-6.621-4.159-12.257-10.001-14.478 C78.999,35.015,79,35.008,79,35c0-11.598-9.402-21-21-21c-9.784,0-17.981,6.701-20.313,15.757C36.211,29.272,34.638,29,33,29 c-7.692,0-14.023,5.793-14.89,13.252C12.906,43.353,9,47.969,9,53.5C9,59.851,14.149,65,20.5,65c0.177,0,0.352-0.012,0.526-0.022 C21.022,65.153,21,65.324,21,65.5C21,76.822,30.178,86,41.5,86c6.437,0,12.175-2.972,15.934-7.614C59.612,80.611,62.64,82,66,82 c4.65,0,8.674-2.65,10.666-6.518C77.718,75.817,78.837,76,80,76c6.075,0,11-4.925,11-11C91,61.689,89.53,58.727,87.215,56.71z"/><path fill="#fdfcef" d="M38.876,41.5c0,0,3.64,0,6.125,0s4.5-2.015,4.5-4.5c0-2.333-1.782-4.229-4.055-4.455 c0.022-0.181,0.055-0.358,0.055-0.545c0-2.485-2.015-4.5-4.5-4.5c-1.438,0-2.703,0.686-3.527,1.736 c-0.14-2.636-2.302-4.736-4.973-4.736c-2.761,0-5,2.239-5,5c0,0.446,0.077,0.87,0.187,1.282c-0.642-0.777-1.6-1.282-2.687-1.282 c-1.781,0-3.234,1.335-3.455,3.055c-0.181-0.022-0.358-0.055-0.545-0.055c-2.485,0-4.5,2.015-4.5,4.5s2.015,4.5,4.5,4.5 s9.5,0,9.5,0h5.375V42h3V41.5z"/><path fill="#472b29" d="M32.501,24c-3.033,0-5.5,2.467-5.5,5.5c0,0.016,0,0.031,0,0.047c-0.602-0.354-1.29-0.547-2-0.547 c-1.831,0-3.411,1.261-3.858,3.005C21.096,32.002,21.049,32,21.001,32c-2.757,0-5,2.243-5,5s2.243,5,5,5h14.875 c0.276,0,0.5-0.224,0.5-0.5s-0.224-0.5-0.5-0.5H21.001c-2.206,0-4-1.794-4-4s1.794-4,4-4c0.117,0,0.23,0.017,0.343,0.032 l0.141,0.019c0.021,0.003,0.041,0.004,0.062,0.004c0.246,0,0.462-0.185,0.495-0.437C22.233,31.125,23.505,30,25.001,30 c0.885,0,1.723,0.401,2.301,1.1c0.098,0.118,0.241,0.182,0.386,0.182c0.078,0,0.156-0.018,0.228-0.056 c0.209-0.107,0.314-0.346,0.254-0.573C28.054,30.217,28,29.851,28,29.5c0-2.481,2.019-4.5,4.5-4.5 c2.381,0,4.347,1.872,4.474,4.263c0.011,0.208,0.15,0.387,0.349,0.45c0.05,0.016,0.101,0.024,0.152,0.024 c0.15,0,0.296-0.069,0.392-0.192c0.771-0.981,1.913-1.544,3.133-1.544c2.206,0,4,1.794,4,4c0,0.117-0.017,0.23-0.032,0.343 l-0.019,0.141c-0.016,0.134,0.022,0.268,0.106,0.373s0.207,0.172,0.34,0.185c2.055,0.205,3.604,1.906,3.604,3.958 c0,2.206-1.794,4-4,4h-6.125c-0.276,0-0.5,0.224-0.5,0.5s0.224,0.5,0.5,0.5h6.125c2.757,0,5-2.243,5-5 c0-2.397-1.689-4.413-4.003-4.877c0.002-0.041,0.003-0.082,0.003-0.123c0-2.757-2.243-5-5-5c-1.176,0-2.293,0.416-3.183,1.164 C37.22,25.76,35.056,24,32.501,24L32.501,24z"/><path fill="#472b29" d="M31.001,31c-1.403,0-2.609,0.999-2.913,2.341C27.721,33.119,27.302,33,26.876,33 c-1.202,0-2.198,0.897-2.353,2.068C24.32,35.023,24.127,35,23.938,35c-1.529,0-2.811,1.2-2.918,2.732 c-0.009,0.138,0.094,0.257,0.232,0.267c0.006,0,0.012,0,0.018,0c0.13,0,0.24-0.101,0.249-0.232 c0.089-1.271,1.151-2.268,2.419-2.268c0.229,0,0.47,0.042,0.738,0.127c0.022,0.007,0.045,0.01,0.067,0.01 c0.055,0,0.11-0.02,0.156-0.054c0.064-0.047,0.102-0.129,0.102-0.209c0-1.034,0.841-1.875,1.875-1.875 c0.447,0,0.885,0.168,1.231,0.473c0.047,0.041,0.106,0.063,0.165,0.063c0.032,0,0.063-0.006,0.093-0.019 c0.088-0.035,0.148-0.117,0.155-0.212c0.102-1.292,1.191-2.305,2.479-2.305c0.208,0,0.425,0.034,0.682,0.107 c0.023,0.007,0.047,0.01,0.07,0.01c0.109,0,0.207-0.073,0.239-0.182c0.038-0.133-0.039-0.271-0.172-0.309 C31.518,31.04,31.257,31,31.001,31L31.001,31z"/><path fill="#472b29" d="M44.884,32.5c-1.326,0-2.508,0.897-2.874,2.182c-0.038,0.133,0.039,0.271,0.172,0.309 c0.023,0.007,0.046,0.01,0.068,0.01c0.109,0,0.209-0.072,0.24-0.182c0.305-1.071,1.289-1.818,2.393-1.818 c0.117,0,0.23,0.014,0.342,0.029c0.012,0.002,0.023,0.003,0.035,0.003c0.121,0,0.229-0.092,0.246-0.217 c0.019-0.137-0.077-0.263-0.214-0.281C45.159,32.516,45.023,32.5,44.884,32.5L44.884,32.5z"/><path fill="#fff" d="M71.405,24H61.5c-0.276,0-0.5-0.224-0.5-0.5s0.224-0.5,0.5-0.5h9.905c0.276,0,0.5,0.224,0.5,0.5 S71.682,24,71.405,24z"/><path fill="#fff" d="M74.5,24h-1c-0.276,0-0.5-0.224-0.5-0.5s0.224-0.5,0.5-0.5h1c0.276,0,0.5,0.224,0.5,0.5 S74.777,24,74.5,24z"/><path fill="#fff" d="M79.491,26H70.5c-0.276,0-0.5-0.224-0.5-0.5s0.224-0.5,0.5-0.5h8.991c0.276,0,0.5,0.224,0.5,0.5 S79.767,26,79.491,26z"/><path fill="#fff" d="M68.5,26h-1c-0.276,0-0.5-0.224-0.5-0.5s0.224-0.5,0.5-0.5h1c0.276,0,0.5,0.224,0.5,0.5 S68.777,26,68.5,26z"/><path fill="#fff" d="M65.5,26h-2c-0.276,0-0.5-0.224-0.5-0.5s0.224-0.5,0.5-0.5h2c0.276,0,0.5,0.224,0.5,0.5 S65.777,26,65.5,26z"/><path fill="#fff" d="M71.5,28h-2c-0.276,0-0.5-0.224-0.5-0.5s0.224-0.5,0.5-0.5h2c0.276,0,0.5,0.224,0.5,0.5 S71.776,28,71.5,28z"/><path fill="#fff" d="M74.5,19c-0.177,0-0.823,0-1,0c-0.276,0-0.5,0.224-0.5,0.5s0.224,0.5,0.5,0.5c0.177,0,0.823,0,1,0 c0.276,0,0.5-0.224,0.5-0.5S74.776,19,74.5,19z"/><path fill="#fff" d="M74.5,21c-0.177,0-4.823,0-5,0c-0.276,0-0.5,0.224-0.5,0.5s0.224,0.5,0.5,0.5c0.177,0,4.823,0,5,0 c0.276,0,0.5-0.224,0.5-0.5S74.776,21,74.5,21z"/><path fill="#fff" d="M79.5,23c-0.177,0-2.823,0-3,0c-0.276,0-0.5,0.224-0.5,0.5s0.224,0.5,0.5,0.5c0.177,0,2.823,0,3,0 c0.276,0,0.5-0.224,0.5-0.5S79.776,23,79.5,23z"/><path fill="#fff" d="M29.5,75h-10c-0.276,0-0.5-0.224-0.5-0.5s0.224-0.5,0.5-0.5h10c0.276,0,0.5,0.224,0.5,0.5 S29.776,75,29.5,75z"/><path fill="#fff" d="M33.5,75h-2c-0.276,0-0.5-0.224-0.5-0.5s0.224-0.5,0.5-0.5h2c0.276,0,0.5,0.224,0.5,0.5 S33.776,75,33.5,75z"/><path fill="#fff" d="M38.5,77h-10c-0.276,0-0.5-0.224-0.5-0.5s0.224-0.5,0.5-0.5h10c0.276,0,0.5,0.224,0.5,0.5 S38.777,77,38.5,77z"/><path fill="#fff" d="M26.5,77h-1c-0.276,0-0.5-0.224-0.5-0.5s0.224-0.5,0.5-0.5h1c0.276,0,0.5,0.224,0.5,0.5 S26.776,77,26.5,77z"/><path fill="#fff" d="M23.375,77H21.5c-0.276,0-0.5-0.224-0.5-0.5s0.224-0.5,0.5-0.5h1.875c0.276,0,0.5,0.224,0.5,0.5 S23.651,77,23.375,77z"/><path fill="#fff" d="M32.5,73h-5c-0.276,0-0.5-0.224-0.5-0.5s0.224-0.5,0.5-0.5h5c0.276,0,0.5,0.224,0.5,0.5 S32.777,73,32.5,73z"/><path fill="#fff" d="M29.5,79h-2c-0.276,0-0.5-0.224-0.5-0.5s0.224-0.5,0.5-0.5h2c0.276,0,0.5,0.224,0.5,0.5 S29.776,79,29.5,79z"/><g><path fill="#fdfcef" d="M84.5,77.5c0,0,1.567,0,3.5,0s3.5-1.567,3.5-3.5c0-1.781-1.335-3.234-3.055-3.455 C88.473,70.366,88.5,70.187,88.5,70c0-1.933-1.567-3.5-3.5-3.5c-1.032,0-1.95,0.455-2.59,1.165 c-0.384-1.808-1.987-3.165-3.91-3.165c-2.209,0-4,1.791-4,4c0,0.191,0.03,0.374,0.056,0.558C74.128,68.714,73.592,68.5,73,68.5 c-1.228,0-2.245,0.887-2.455,2.055C70.366,70.527,70.187,70.5,70,70.5c-1.933,0-3.5,1.567-3.5,3.5s1.567,3.5,3.5,3.5s7.5,0,7.5,0 V78h7V77.5z"/><path fill="#472b29" d="M86.25,73C86.112,73,86,72.888,86,72.75c0-1.223,0.995-2.218,2.218-2.218 c0.034,0.009,0.737-0.001,1.244,0.136c0.133,0.036,0.212,0.173,0.176,0.306c-0.036,0.134-0.173,0.213-0.306,0.176 c-0.444-0.12-1.1-0.12-1.113-0.118c-0.948,0-1.719,0.771-1.719,1.718C86.5,72.888,86.388,73,86.25,73z"/><circle cx="79.5" cy="77.5" r=".5" fill="#472b29"/><path fill="#472b29" d="M88,78h-3.5c-0.276,0-0.5-0.224-0.5-0.5s0.224-0.5,0.5-0.5H88c1.654,0,3-1.346,3-3 c0-1.496-1.125-2.768-2.618-2.959c-0.134-0.018-0.255-0.088-0.336-0.196s-0.115-0.244-0.094-0.377C87.975,70.314,88,70.16,88,70 c0-1.654-1.346-3-3-3c-0.85,0-1.638,0.355-2.219,1c-0.125,0.139-0.321,0.198-0.5,0.148c-0.182-0.049-0.321-0.195-0.36-0.379 C81.58,66.165,80.141,65,78.5,65c-1.93,0-3.5,1.57-3.5,3.5c0,0.143,0.021,0.28,0.041,0.418c0.029,0.203-0.063,0.438-0.242,0.54 c-0.179,0.102-0.396,0.118-0.556-0.01C73.878,69.155,73.449,69,73,69c-0.966,0-1.792,0.691-1.963,1.644 c-0.048,0.267-0.296,0.446-0.569,0.405C70.314,71.025,70.16,71,70,71c-1.654,0-3,1.346-3,3s1.346,3,3,3h7.5 c0.276,0,0.5,0.224,0.5,0.5S77.776,78,77.5,78H70c-2.206,0-4-1.794-4-4s1.794-4,4-4c0.059,0,0.116,0.002,0.174,0.006 C70.588,68.82,71.711,68,73,68c0.349,0,0.689,0.061,1.011,0.18C74.176,65.847,76.126,64,78.5,64c1.831,0,3.466,1.127,4.153,2.774 C83.333,66.276,84.155,66,85,66c2.206,0,4,1.794,4,4c0,0.048-0.001,0.095-0.004,0.142C90.739,70.59,92,72.169,92,74 C92,76.206,90.206,78,88,78z"/><path fill="#472b29" d="M82.5,77c-0.159,0-0.841,0-1,0c-0.276,0-0.5,0.224-0.5,0.5s0.224,0.5,0.5,0.5c0.159,0,0.841,0,1,0 c0.276,0,0.5-0.224,0.5-0.5S82.776,77,82.5,77z"/></g><path fill="#666aad" d="M66.09,62c-3.25,0-5.895-2.579-5.895-5.75V46h10.491c0.716,0,1.299,0.561,1.299,1.25v9 C71.985,59.421,69.341,62,66.09,62z"/><path fill="#472b29" d="M70.687,46.4c0.495,0,0.898,0.381,0.898,0.85v9c0,2.95-2.465,5.35-5.495,5.35s-5.495-2.4-5.495-5.35 V46.4H70.687 M70.687,45H59.195v11.25c0,3.728,3.087,6.75,6.895,6.75s6.895-3.022,6.895-6.75v-9C72.985,46.007,71.957,45,70.687,45 L70.687,45z"/><path fill="#8889b9" d="M40.151,45.556v13.696c0,5.763,4.421,10.796,10.267,11.168c6.408,0.409,11.733-4.583,11.733-10.797 V47.72c0-1.196-0.985-2.164-2.2-2.164H40.151z"/><path fill="#472b29" d="M51.153,68.25c-0.196,0-0.394-0.006-0.593-0.019c-0.138-0.009-0.242-0.128-0.233-0.266 c0.009-0.137,0.121-0.253,0.266-0.233c1.525,0.1,2.973-0.194,4.295-0.852c0.122-0.062,0.273-0.012,0.335,0.112 s0.011,0.273-0.112,0.335C53.883,67.939,52.551,68.25,51.153,68.25z"/><path fill="#472b29" d="M57.173,65.801c-0.064,0-0.129-0.025-0.178-0.075c-0.097-0.099-0.096-0.257,0.003-0.354 c0.733-0.721,1.312-1.553,1.72-2.474c0.448-1.009,0.675-2.087,0.675-3.203V53c0-0.138,0.112-0.25,0.25-0.25s0.25,0.112,0.25,0.25 v6.696c0,1.186-0.242,2.332-0.718,3.406c-0.434,0.979-1.048,1.863-1.826,2.627C57.3,65.777,57.237,65.801,57.173,65.801z"/><path fill="#472b29" d="M59.643,51.25c-0.138,0-0.25-0.112-0.25-0.25v-3c0-0.138,0.112-0.25,0.25-0.25s0.25,0.112,0.25,0.25 v3C59.893,51.138,59.781,51.25,59.643,51.25z"/><circle cx="50.993" cy="35.999" r="5.999" fill="#666aad"/><path fill="#4a5397" d="M65.989,42.005c-2.199,0-3.989-1.79-3.989-3.989c0-2.2,1.79-3.989,3.989-3.989 s3.988,1.79,3.988,3.989C69.978,40.215,68.188,42.005,65.989,42.005z"/><path fill="#472b29" d="M60.345,46.4c0.495,0,0.898,0.386,0.898,0.861v12.435c0,5.461-4.526,9.904-10.09,9.904 c-0.224,0-0.45-0.007-0.678-0.022c-5.279-0.336-9.415-4.847-9.415-10.27V46.4H60.345 M60.345,45H39.66v14.308 c0,6.021,4.618,11.278,10.726,11.667C50.643,70.992,50.899,71,51.153,71c6.347,0,11.49-5.061,11.49-11.304V47.261 C62.643,46.012,61.614,45,60.345,45L60.345,45z"/><path fill="#472b29" d="M50.993,30.4c3.087,0,5.599,2.512,5.599,5.599s-2.512,5.599-5.599,5.599 c-3.087,0-5.599-2.512-5.599-5.599S47.906,30.4,50.993,30.4 M50.993,29c-3.865,0-6.999,3.133-6.999,6.999s3.133,6.999,6.999,6.999 c3.865,0,6.999-3.133,6.999-6.999S54.859,29,50.993,29L50.993,29z"/><path fill="#472b29" d="M66,34.403c1.983,0,3.597,1.614,3.597,3.597S67.983,41.597,66,41.597S62.403,39.983,62.403,38 S64.017,34.403,66,34.403 M66,33c-2.761,0-5,2.239-5,5s2.239,5,5,5c2.761,0,5-2.239,5-5S68.761,33,66,33L66,33z"/><path fill="#4a5397" d="M28.932,60.972c-0.514,0-0.932-0.418-0.932-0.932V40.92c0-0.514,0.418-0.932,0.932-0.932h19.119 c0.514,0,0.932,0.418,0.932,0.932v19.12c0,0.514-0.418,0.932-0.932,0.932H28.932z"/><path fill="#fdfcef" d="M43.079,45h-9.174v1.939h3.436v9.337h2.303v-9.337h3.436V45H43.079z"/><path fill="#472b29" d="M39.643,56.526H37.34c-0.138,0-0.25-0.112-0.25-0.25V47.19h-3.186c-0.138,0-0.25-0.112-0.25-0.25V45 c0-0.138,0.112-0.25,0.25-0.25h9.174c0.138,0,0.25,0.112,0.25,0.25v1.939c0,0.138-0.112,0.25-0.25,0.25h-3.186v9.086 C39.893,56.414,39.781,56.526,39.643,56.526z M37.59,56.026h1.802V46.94c0-0.138,0.112-0.25,0.25-0.25h3.186v-1.44h-8.674v1.439 h3.186c0.138,0,0.25,0.112,0.25,0.25V56.026z"/><path fill="#472b29" d="M48.067,40.401c0.293,0,0.532,0.239,0.532,0.532v19.133c0,0.293-0.239,0.532-0.532,0.532H28.933 c-0.293,0-0.532-0.239-0.532-0.532V40.932c0-0.293,0.239-0.532,0.532-0.532h19.133 M48.067,39H28.933 C27.867,39,27,39.866,27,40.933v19.133C27,61.133,27.866,62,28.933,62h19.133C49.133,62,50,61.134,50,60.067V40.932 C50,39.866,49.134,39,48.067,39L48.067,39z"/></svg>