<svg xmlns="http://www.w3.org/2000/svg"  viewBox="0 0 100 100" width="100px" height="100px"><path fill="#c7ede6" d="M87.215,56.71C88.35,54.555,89,52.105,89,49.5c0-6.621-4.159-12.257-10.001-14.478 C78.999,35.015,79,35.008,79,35c0-11.598-9.402-21-21-21c-9.784,0-17.981,6.701-20.313,15.757C36.211,29.272,34.638,29,33,29 c-7.692,0-14.023,5.793-14.89,13.252C12.906,43.353,9,47.969,9,53.5C9,59.851,14.149,65,20.5,65c0.177,0,0.352-0.012,0.526-0.022 C21.022,65.153,21,65.324,21,65.5C21,76.822,30.178,86,41.5,86c6.437,0,12.175-2.972,15.934-7.614C59.612,80.611,62.64,82,66,82 c4.65,0,8.674-2.65,10.666-6.518C77.718,75.817,78.837,76,80,76c6.075,0,11-4.925,11-11C91,61.689,89.53,58.727,87.215,56.71z"/><path fill="#fdfcef" d="M70.125,36.5c0,0-3.64,0-6.125,0s-4.5-2.015-4.5-4.5c0-2.333,1.782-4.229,4.055-4.455 C63.533,27.364,63.5,27.187,63.5,27c0-2.485,2.015-4.5,4.5-4.5c1.438,0,2.703,0.686,3.527,1.736 C71.667,21.6,73.829,19.5,76.5,19.5c2.761,0,5,2.239,5,5c0,0.446-0.077,0.87-0.187,1.282c0.642-0.777,1.6-1.282,2.687-1.282 c1.781,0,3.234,1.335,3.455,3.055C87.636,27.533,87.813,27.5,88,27.5c2.485,0,4.5,2.015,4.5,4.5s-2.015,4.5-4.5,4.5s-9.5,0-9.5,0 h-5.375V37h-3V36.5z"/><path fill="#472b29" d="M76.5,19c3.033,0,5.5,2.467,5.5,5.5c0,0.016,0,0.031,0,0.047C82.602,24.192,83.29,24,84,24 c1.831,0,3.411,1.261,3.858,3.005C87.905,27.002,87.952,27,88,27c2.757,0,5,2.243,5,5s-2.243,5-5,5H73.125 c-0.276,0-0.5-0.224-0.5-0.5s0.224-0.5,0.5-0.5H88c2.206,0,4-1.794,4-4s-1.794-4-4-4c-0.117,0-0.23,0.017-0.343,0.032 l-0.141,0.019c-0.021,0.003-0.041,0.004-0.062,0.004c-0.246,0-0.462-0.185-0.495-0.437C86.768,26.125,85.496,25,84,25 c-0.885,0-1.723,0.401-2.301,1.1c-0.098,0.118-0.241,0.182-0.386,0.182c-0.078,0-0.156-0.018-0.228-0.056 c-0.209-0.107-0.314-0.346-0.254-0.573C80.946,25.218,81,24.852,81,24.5c0-2.481-2.019-4.5-4.5-4.5 c-2.381,0-4.347,1.872-4.474,4.263c-0.011,0.208-0.15,0.387-0.349,0.45c-0.05,0.016-0.101,0.024-0.152,0.024 c-0.15,0-0.296-0.069-0.392-0.192C70.362,23.563,69.221,23,68,23c-2.206,0-4,1.794-4,4c0,0.117,0.017,0.23,0.032,0.343 l0.019,0.141c0.016,0.134-0.022,0.268-0.106,0.373c-0.084,0.105-0.207,0.172-0.34,0.185C61.549,28.247,60,29.949,60,32 c0,2.206,1.794,4,4,4h6.125c0.276,0,0.5,0.224,0.5,0.5s-0.224,0.5-0.5,0.5H64c-2.757,0-5-2.243-5-5 c0-2.397,1.689-4.413,4.003-4.877C63.001,27.082,63,27.041,63,27c0-2.757,2.243-5,5-5c1.176,0,2.293,0.416,3.183,1.164 C71.781,20.76,73.945,19,76.5,19L76.5,19z"/><path fill="#472b29" d="M78,26c1.403,0,2.609,0.999,2.913,2.341C81.28,28.119,81.699,28,82.125,28 c1.202,0,2.198,0.897,2.353,2.068C84.681,30.022,84.874,30,85.063,30c1.529,0,2.811,1.2,2.918,2.732 C87.99,32.87,87.886,32.99,87.749,33c-0.006,0-0.012,0-0.018,0c-0.13,0-0.24-0.101-0.249-0.232 c-0.089-1.271-1.151-2.268-2.419-2.268c-0.229,0-0.47,0.042-0.738,0.127c-0.022,0.007-0.045,0.01-0.067,0.01 c-0.055,0-0.11-0.02-0.156-0.054C84.038,30.537,84,30.455,84,30.375c0-1.034-0.841-1.875-1.875-1.875 c-0.447,0-0.885,0.168-1.231,0.473c-0.047,0.041-0.106,0.063-0.165,0.063c-0.032,0-0.063-0.006-0.093-0.019 c-0.088-0.035-0.148-0.117-0.155-0.212C80.377,27.512,79.288,26.5,78,26.5c-0.208,0-0.425,0.034-0.682,0.107 c-0.023,0.007-0.047,0.01-0.07,0.01c-0.109,0-0.207-0.073-0.239-0.182c-0.038-0.133,0.039-0.271,0.172-0.309 C77.483,26.04,77.744,26,78,26L78,26z"/><path fill="#472b29" d="M64.117,27.5c1.326,0,2.508,0.897,2.874,2.182c0.038,0.133-0.039,0.271-0.172,0.309 C66.795,29.997,66.772,30,66.75,30c-0.109,0-0.209-0.072-0.24-0.182C66.205,28.748,65.221,28,64.117,28 c-0.117,0-0.23,0.014-0.342,0.029c-0.012,0.002-0.023,0.003-0.035,0.003c-0.121,0-0.229-0.092-0.246-0.217 c-0.019-0.137,0.077-0.263,0.214-0.281C63.842,27.516,63.978,27.5,64.117,27.5L64.117,27.5z"/><path fill="#fff" d="M45.405,22H35.5c-0.276,0-0.5-0.224-0.5-0.5s0.224-0.5,0.5-0.5h9.905c0.276,0,0.5,0.224,0.5,0.5 S45.682,22,45.405,22z"/><path fill="#fff" d="M48.5,22h-1c-0.276,0-0.5-0.224-0.5-0.5s0.224-0.5,0.5-0.5h1c0.276,0,0.5,0.224,0.5,0.5 S48.777,22,48.5,22z"/><path fill="#fff" d="M53.491,24H44.5c-0.276,0-0.5-0.224-0.5-0.5s0.224-0.5,0.5-0.5h8.991c0.276,0,0.5,0.224,0.5,0.5 S53.767,24,53.491,24z"/><path fill="#fff" d="M42.5,24h-1c-0.276,0-0.5-0.224-0.5-0.5s0.224-0.5,0.5-0.5h1c0.276,0,0.5,0.224,0.5,0.5 S42.777,24,42.5,24z"/><path fill="#fff" d="M39.5,24h-2c-0.276,0-0.5-0.224-0.5-0.5s0.224-0.5,0.5-0.5h2c0.276,0,0.5,0.224,0.5,0.5 S39.777,24,39.5,24z"/><path fill="#fff" d="M45.5,26h-2c-0.276,0-0.5-0.224-0.5-0.5s0.224-0.5,0.5-0.5h2c0.276,0,0.5,0.224,0.5,0.5 S45.776,26,45.5,26z"/><path fill="#fff" d="M48.5,17c-0.177,0-0.823,0-1,0c-0.276,0-0.5,0.224-0.5,0.5c0,0.276,0.224,0.5,0.5,0.5 c0.177,0,0.823,0,1,0c0.276,0,0.5-0.224,0.5-0.5C49,17.224,48.776,17,48.5,17z"/><path fill="#fff" d="M48.5,19c-0.177,0-4.823,0-5,0c-0.276,0-0.5,0.224-0.5,0.5c0,0.276,0.224,0.5,0.5,0.5 c0.177,0,4.823,0,5,0c0.276,0,0.5-0.224,0.5-0.5C49,19.224,48.776,19,48.5,19z"/><path fill="#fff" d="M53.5,21c-0.177,0-2.823,0-3,0c-0.276,0-0.5,0.224-0.5,0.5c0,0.276,0.224,0.5,0.5,0.5 c0.177,0,2.823,0,3,0c0.276,0,0.5-0.224,0.5-0.5C54,21.224,53.776,21,53.5,21z"/><g><path fill="#fff" d="M89.5,64h-10c-0.276,0-0.5-0.224-0.5-0.5s0.224-0.5,0.5-0.5h10c0.276,0,0.5,0.224,0.5,0.5 S89.776,64,89.5,64z"/><path fill="#fff" d="M93.5,64h-2c-0.276,0-0.5-0.224-0.5-0.5s0.224-0.5,0.5-0.5h2c0.276,0,0.5,0.224,0.5,0.5 S93.776,64,93.5,64z"/><path fill="#fff" d="M98.5,66h-10c-0.276,0-0.5-0.224-0.5-0.5s0.224-0.5,0.5-0.5h10c0.276,0,0.5,0.224,0.5,0.5 S98.777,66,98.5,66z"/><path fill="#fff" d="M86.5,66h-1c-0.276,0-0.5-0.224-0.5-0.5s0.224-0.5,0.5-0.5h1c0.276,0,0.5,0.224,0.5,0.5 S86.776,66,86.5,66z"/><path fill="#fff" d="M83.47,66H81.5c-0.276,0-0.5-0.224-0.5-0.5s0.224-0.5,0.5-0.5h1.97c0.276,0,0.5,0.224,0.5,0.5 S83.746,66,83.47,66z"/><path fill="#fff" d="M92.5,62h-5c-0.276,0-0.5-0.224-0.5-0.5s0.224-0.5,0.5-0.5h5c0.276,0,0.5,0.224,0.5,0.5 S92.777,62,92.5,62z"/><path fill="#fff" d="M89.5,68h-2c-0.276,0-0.5-0.224-0.5-0.5s0.224-0.5,0.5-0.5h2c0.276,0,0.5,0.224,0.5,0.5 S89.776,68,89.5,68z"/></g><g><path fill="#e1e0d8" d="M71.525,74H32.475C29.451,74,27,71.549,27,68.525V37.475C27,34.451,29.451,32,32.475,32h39.049 C74.549,32,77,34.451,77,37.475v31.049C77,71.549,74.549,74,71.525,74z"/><rect width="50" height="27" x="27" y="41" fill="#8889b9"/><polygon fill="#edf7f5" points="43.061,63.061 40.939,60.939 47.879,54 40.939,47.061 43.061,44.939 52.121,54"/><rect width="12" height="3" x="52.5" y="60.458" fill="#edf7f5"/><path fill="#472b29" d="M43.061,63.311c-0.064,0-0.128-0.024-0.177-0.073l-2.121-2.121c-0.098-0.098-0.098-0.256,0-0.354 L47.525,54l-4.106-4.106c-0.098-0.098-0.098-0.256,0-0.354c0.098-0.098,0.256-0.098,0.354,0l4.283,4.283 c0.098,0.098,0.098,0.256,0,0.354l-6.763,6.763l1.768,1.768l1.792-1.792c0.098-0.098,0.256-0.098,0.354,0 c0.098,0.098,0.098,0.256,0,0.354l-1.969,1.969C43.188,63.286,43.125,63.311,43.061,63.311z"/><path fill="#472b29" d="M46.686,59.686c-0.064,0-0.128-0.024-0.177-0.073c-0.098-0.098-0.098-0.256,0-0.354L51.768,54 l-1.665-1.665c-0.098-0.098-0.098-0.256,0-0.354c0.098-0.098,0.256-0.098,0.354,0l1.842,1.842c0.098,0.098,0.098,0.256,0,0.354 l-5.436,5.436C46.813,59.661,46.75,59.686,46.686,59.686z"/><path fill="#472b29" d="M48.654,50.783c-0.064,0-0.128-0.024-0.177-0.073l-5.417-5.417l-1.768,1.768l0.886,0.886 c0.098,0.098,0.098,0.256,0,0.354c-0.098,0.098-0.256,0.098-0.354,0l-1.063-1.063c-0.098-0.098-0.098-0.256,0-0.354l2.121-2.121 c0.098-0.098,0.256-0.098,0.354,0l5.594,5.594c0.098,0.098,0.098,0.256,0,0.354C48.782,50.759,48.719,50.783,48.654,50.783z"/><path fill="#472b29" d="M60.813,60.75H56.75c-0.138,0-0.25-0.112-0.25-0.25s0.112-0.25,0.25-0.25h4.063 c0.138,0,0.25,0.112,0.25,0.25S60.95,60.75,60.813,60.75z"/><path fill="#472b29" d="M64.5,63.75h-12c-0.138,0-0.25-0.112-0.25-0.25v-3c0-0.138,0.112-0.25,0.25-0.25h2.063 c0.138,0,0.25,0.112,0.25,0.25s-0.112,0.25-0.25,0.25H52.75v2.5h11.5v-2.5h-1.438c-0.138,0-0.25-0.112-0.25-0.25 s0.112-0.25,0.25-0.25H64.5c0.138,0,0.25,0.112,0.25,0.25v3C64.75,63.638,64.638,63.75,64.5,63.75z"/><path fill="#472b29" d="M71.525,33.4c2.247,0,4.075,1.829,4.075,4.076v31.049c0,2.247-1.828,4.076-4.075,4.076H32.475 c-2.247,0-4.075-1.829-4.075-4.076V37.476c0-2.247,1.828-4.076,4.075-4.076H71.525 M71.525,32H32.475 C29.451,32,27,34.451,27,37.476v31.049C27,71.549,29.451,74,32.475,74h39.049C74.549,74,77,71.549,77,68.524V37.476 C77,34.451,74.549,32,71.525,32L71.525,32z"/><path fill="#472b29" d="M53.5,42h-26c-0.276,0-0.5-0.224-0.5-0.5s0.224-0.5,0.5-0.5h26c0.276,0,0.5,0.224,0.5,0.5 S53.776,42,53.5,42z"/><g><path fill="#472b29" d="M61.5,42h-5c-0.276,0-0.5-0.224-0.5-0.5s0.224-0.5,0.5-0.5h5c0.276,0,0.5,0.224,0.5,0.5 S61.776,42,61.5,42z"/></g><g><path fill="#472b29" d="M76.5,42h-12c-0.276,0-0.5-0.224-0.5-0.5s0.224-0.5,0.5-0.5h12c0.276,0,0.5,0.224,0.5,0.5 S76.776,42,76.5,42z"/></g><g><path fill="#472b29" d="M76.5,68h-12c-0.276,0-0.5-0.224-0.5-0.5s0.224-0.5,0.5-0.5h12c0.276,0,0.5,0.224,0.5,0.5 S76.776,68,76.5,68z"/></g><g><path fill="#472b29" d="M60.5,68h-32c-0.276,0-0.5-0.224-0.5-0.5s0.224-0.5,0.5-0.5h32c0.276,0,0.5,0.224,0.5,0.5 S60.776,68,60.5,68z"/></g><g><circle cx="34.5" cy="37.5" r="1.5" fill="#ee3e54"/><path fill="#472b29" d="M34.5,39.25c-0.965,0-1.75-0.785-1.75-1.75s0.785-1.75,1.75-1.75s1.75,0.785,1.75,1.75 S35.465,39.25,34.5,39.25z M34.5,36.25c-0.689,0-1.25,0.561-1.25,1.25s0.561,1.25,1.25,1.25s1.25-0.561,1.25-1.25 S35.189,36.25,34.5,36.25z"/></g><g><circle cx="40.5" cy="37.5" r="1.5" fill="#88ae45"/><path fill="#472b29" d="M40.5,39.25c-0.965,0-1.75-0.785-1.75-1.75s0.785-1.75,1.75-1.75s1.75,0.785,1.75,1.75 S41.465,39.25,40.5,39.25z M40.5,36.25c-0.689,0-1.25,0.561-1.25,1.25s0.561,1.25,1.25,1.25s1.25-0.561,1.25-1.25 S41.189,36.25,40.5,36.25z"/></g></g><g><path fill="#fdfcef" d="M15.5,64.5c0,0-1.567,0-3.5,0S8.5,62.933,8.5,61c0-1.781,1.335-3.234,3.055-3.455 C11.527,57.366,11.5,57.187,11.5,57c0-1.933,1.567-3.5,3.5-3.5c1.032,0,1.95,0.455,2.59,1.165c0.384-1.808,1.987-3.165,3.91-3.165 c2.209,0,4,1.791,4,4c0,0.191-0.03,0.374-0.056,0.558C25.872,55.714,26.408,55.5,27,55.5c1.228,0,2.245,0.887,2.455,2.055 C29.634,57.527,29.813,57.5,30,57.5c1.933,0,3.5,1.567,3.5,3.5s-1.567,3.5-3.5,3.5s-7.5,0-7.5,0V65h-7V64.5z"/><path fill="#472b29" d="M13.75,60c0.138,0,0.25-0.112,0.25-0.25c0-1.223-0.995-2.218-2.218-2.218 c-0.034,0.009-0.737-0.001-1.244,0.136c-0.133,0.036-0.212,0.173-0.176,0.306c0.036,0.134,0.173,0.213,0.306,0.176 c0.444-0.12,1.1-0.12,1.113-0.118c0.948,0,1.719,0.771,1.719,1.718C13.5,59.888,13.612,60,13.75,60z"/><circle cx="20.5" cy="64.5" r=".5" fill="#472b29"/><path fill="#472b29" d="M12,65h3.5c0.276,0,0.5-0.224,0.5-0.5S15.776,64,15.5,64H12c-1.654,0-3-1.346-3-3 c0-1.496,1.125-2.768,2.618-2.959c0.134-0.018,0.255-0.088,0.336-0.196s0.115-0.244,0.094-0.377C12.025,57.314,12,57.16,12,57 c0-1.654,1.346-3,3-3c0.85,0,1.638,0.355,2.219,1c0.125,0.139,0.321,0.198,0.5,0.148c0.182-0.049,0.321-0.195,0.36-0.379 C18.42,53.165,19.859,52,21.5,52c1.93,0,3.5,1.57,3.5,3.5c0,0.143-0.021,0.28-0.041,0.418c-0.029,0.203,0.063,0.438,0.242,0.54 c0.179,0.102,0.396,0.118,0.556-0.01C26.122,56.155,26.551,56,27,56c0.966,0,1.792,0.691,1.963,1.644 c0.048,0.267,0.296,0.446,0.569,0.405C29.686,58.025,29.84,58,30,58c1.654,0,3,1.346,3,3s-1.346,3-3,3h-7.5 c-0.276,0-0.5,0.224-0.5,0.5s0.224,0.5,0.5,0.5H30c2.206,0,4-1.794,4-4s-1.794-4-4-4c-0.059,0-0.116,0.002-0.174,0.006 C29.412,55.82,28.289,55,27,55c-0.349,0-0.689,0.061-1.011,0.18C25.824,52.847,23.874,51,21.5,51 c-1.831,0-3.466,1.127-4.153,2.774C16.667,53.276,15.845,53,15,53c-2.206,0-4,1.794-4,4c0,0.048,0.001,0.095,0.004,0.142 C9.261,57.59,8,59.169,8,61C8,63.206,9.794,65,12,65z"/><path fill="#472b29" d="M17.5,64c0.159,0,0.841,0,1,0c0.276,0,0.5,0.224,0.5,0.5c0,0.276-0.224,0.5-0.5,0.5 c-0.159,0-0.841,0-1,0c-0.276,0-0.5-0.224-0.5-0.5C17,64.224,17.224,64,17.5,64z"/></g></svg>