<svg xmlns="http://www.w3.org/2000/svg"  viewBox="0 0 100 100" width="100px" height="100px"><path fill="#c7ede6" d="M87.215,56.71C88.35,54.555,89,52.105,89,49.5c0-6.621-4.159-12.257-10.001-14.478 C78.999,35.015,79,35.008,79,35c0-11.598-9.402-21-21-21c-9.784,0-17.981,6.701-20.313,15.757C36.211,29.272,34.638,29,33,29 c-7.692,0-14.023,5.793-14.89,13.252C12.906,43.353,9,47.969,9,53.5C9,59.851,14.149,65,20.5,65c0.177,0,0.352-0.012,0.526-0.022 C21.022,65.153,21,65.324,21,65.5C21,76.822,30.178,86,41.5,86c6.437,0,12.175-2.972,15.934-7.614C59.612,80.611,62.64,82,66,82 c4.65,0,8.674-2.65,10.666-6.518C77.718,75.817,78.837,76,80,76c6.075,0,11-4.925,11-11C91,61.689,89.53,58.727,87.215,56.71z"/><path fill="#fdfcef" d="M76.5,60.5V61h3v-0.5c1.878,0,4.184,0,5.5,0c2.485,0,4.5-2.015,4.5-4.5 c0-2.333-1.782-4.229-4.055-4.455C85.467,51.364,85.5,51.187,85.5,51c0-2.485-2.015-4.5-4.5-4.5c-1.438,0-2.703,0.686-3.527,1.736 C77.333,45.6,75.171,43.5,72.5,43.5c-2.761,0-5,2.239-5,5c0,0.446,0.077,0.87,0.187,1.282C67.045,49.005,66.086,48.5,65,48.5 c-1.781,0-3.234,1.335-3.455,3.055C61.364,51.533,61.187,51.5,61,51.5c-2.485,0-4.5,2.015-4.5,4.5s2.015,4.5,4.5,4.5s9.5,0,9.5,0 H76.5z"/><path fill="#472b29" d="M72.5,43c-3.033,0-5.5,2.467-5.5,5.5c0,0.016,0,0.031,0,0.047C66.398,48.192,65.71,48,65,48 c-1.831,0-3.411,1.261-3.858,3.005C61.095,51.002,61.048,51,61,51c-2.757,0-5,2.243-5,5s2.243,5,5,5h15.5 c0.276,0,0.5-0.224,0.5-0.5S76.776,60,76.5,60H61c-2.206,0-4-1.794-4-4s1.794-4,4-4c0.117,0,0.23,0.017,0.343,0.032l0.141,0.019 c0.021,0.003,0.041,0.004,0.062,0.004c0.246,0,0.462-0.185,0.495-0.437C62.232,50.125,63.504,49,65,49 c0.885,0,1.723,0.401,2.301,1.1c0.098,0.118,0.241,0.182,0.386,0.182c0.078,0,0.156-0.018,0.228-0.056 c0.209-0.107,0.314-0.346,0.254-0.573C68.054,49.218,68,48.852,68,48.5c0-2.481,2.019-4.5,4.5-4.5c2.381,0,4.347,1.872,4.474,4.263 c0.011,0.208,0.15,0.387,0.349,0.45c0.05,0.016,0.101,0.024,0.152,0.024c0.15,0,0.296-0.069,0.392-0.192 C78.638,47.563,79.779,47,81,47c2.206,0,4,1.794,4,4c0,0.117-0.017,0.23-0.032,0.343l-0.019,0.141 c-0.016,0.134,0.022,0.268,0.106,0.373c0.084,0.105,0.207,0.172,0.34,0.185C87.451,52.247,89,53.949,89,56c0,2.206-1.794,4-4,4 h-5.5c-0.276,0-0.5,0.224-0.5,0.5s0.224,0.5,0.5,0.5H85c2.757,0,5-2.243,5-5c0-2.397-1.689-4.413-4.003-4.877 C85.999,51.082,86,51.041,86,51c0-2.757-2.243-5-5-5c-1.176,0-2.293,0.416-3.183,1.164C77.219,44.76,75.055,43,72.5,43L72.5,43z"/><path fill="#472b29" d="M84.883,51.5c-1.326,0-2.508,0.897-2.874,2.182c-0.038,0.133,0.039,0.271,0.172,0.309 C82.205,53.997,82.228,54,82.25,54c0.109,0,0.209-0.072,0.24-0.182C82.795,52.748,83.779,52,84.883,52 c0.117,0,0.23,0.014,0.342,0.029c0.012,0.002,0.023,0.003,0.035,0.003c0.121,0,0.229-0.092,0.246-0.217 c0.019-0.137-0.077-0.263-0.214-0.281C85.158,51.516,85.022,51.5,84.883,51.5L84.883,51.5z"/><path fill="#fff" d="M15.5 51h-10C5.224 51 5 50.776 5 50.5S5.224 50 5.5 50h10c.276 0 .5.224.5.5S15.777 51 15.5 51zM18.5 51h-1c-.276 0-.5-.224-.5-.5s.224-.5.5-.5h1c.276 0 .5.224.5.5S18.777 51 18.5 51zM23.491 53H14.5c-.276 0-.5-.224-.5-.5s.224-.5.5-.5h8.991c.276 0 .5.224.5.5S23.767 53 23.491 53zM12.5 53h-1c-.276 0-.5-.224-.5-.5s.224-.5.5-.5h1c.276 0 .5.224.5.5S12.777 53 12.5 53zM9.5 53h-2C7.224 53 7 52.776 7 52.5S7.224 52 7.5 52h2c.276 0 .5.224.5.5S9.777 53 9.5 53zM15.5 55h-2c-.276 0-.5-.224-.5-.5s.224-.5.5-.5h2c.276 0 .5.224.5.5S15.776 55 15.5 55zM18.5 46c-.177 0-.823 0-1 0-.276 0-.5.224-.5.5 0 .276.224.5.5.5.177 0 .823 0 1 0 .276 0 .5-.224.5-.5C19 46.224 18.776 46 18.5 46zM18.5 48c-.177 0-4.823 0-5 0-.276 0-.5.224-.5.5 0 .276.224.5.5.5.177 0 4.823 0 5 0 .276 0 .5-.224.5-.5C19 48.224 18.776 48 18.5 48zM23.5 50c-.177 0-2.823 0-3 0-.276 0-.5.224-.5.5 0 .276.224.5.5.5.177 0 2.823 0 3 0 .276 0 .5-.224.5-.5C24 50.224 23.776 50 23.5 50z"/><g><path fill="#fff" d="M72.5 24h-10c-.276 0-.5-.224-.5-.5s.224-.5.5-.5h10c.276 0 .5.224.5.5S72.776 24 72.5 24zM76.5 24h-2c-.276 0-.5-.224-.5-.5s.224-.5.5-.5h2c.276 0 .5.224.5.5S76.776 24 76.5 24zM81.5 26h-10c-.276 0-.5-.224-.5-.5s.224-.5.5-.5h10c.276 0 .5.224.5.5S81.777 26 81.5 26zM69.5 26h-1c-.276 0-.5-.224-.5-.5s.224-.5.5-.5h1c.276 0 .5.224.5.5S69.776 26 69.5 26zM66.47 26H64.5c-.276 0-.5-.224-.5-.5s.224-.5.5-.5h1.97c.276 0 .5.224.5.5S66.746 26 66.47 26zM75.5 22h-5c-.276 0-.5-.224-.5-.5s.224-.5.5-.5h5c.276 0 .5.224.5.5S75.777 22 75.5 22zM72.5 28h-2c-.276 0-.5-.224-.5-.5s.224-.5.5-.5h2c.276 0 .5.224.5.5S72.776 28 72.5 28z"/></g><g><path fill="#fdfcef" d="M36.5,70.5c0,0,1.567,0,3.5,0s3.5-1.567,3.5-3.5c0-1.781-1.335-3.234-3.055-3.455 C40.473,63.366,40.5,63.187,40.5,63c0-1.933-1.567-3.5-3.5-3.5c-1.032,0-1.95,0.455-2.59,1.165 c-0.384-1.808-1.987-3.165-3.91-3.165c-2.209,0-4,1.791-4,4c0,0.191,0.03,0.374,0.056,0.558C26.128,61.714,25.592,61.5,25,61.5 c-1.228,0-2.245,0.887-2.455,2.055C22.366,63.527,22.187,63.5,22,63.5c-1.933,0-3.5,1.567-3.5,3.5s1.567,3.5,3.5,3.5s4.5,0,4.5,0 V71h10V70.5z"/><path fill="#472b29" d="M38.25 66C38.112 66 38 65.888 38 65.75c0-1.223.995-2.218 2.218-2.218.034.009.737-.001 1.244.136.133.036.212.173.176.306-.036.134-.173.213-.306.176-.444-.12-1.1-.12-1.113-.118-.948 0-1.719.771-1.719 1.718C38.5 65.888 38.388 66 38.25 66zM28.5 70A.5.5 0 1 0 28.5 71 .5.5 0 1 0 28.5 70z"/><path fill="#472b29" d="M40,71h-3.5c-0.276,0-0.5-0.224-0.5-0.5s0.224-0.5,0.5-0.5H40c1.654,0,3-1.346,3-3 c0-1.496-1.125-2.768-2.618-2.959c-0.134-0.018-0.255-0.088-0.336-0.196s-0.115-0.244-0.094-0.377C39.975,63.314,40,63.16,40,63 c0-1.654-1.346-3-3-3c-0.85,0-1.638,0.355-2.219,1c-0.125,0.139-0.321,0.198-0.5,0.148c-0.182-0.049-0.321-0.195-0.36-0.379 C33.58,59.165,32.141,58,30.5,58c-1.93,0-3.5,1.57-3.5,3.5c0,0.143,0.021,0.28,0.041,0.418c0.029,0.203-0.063,0.438-0.242,0.54 c-0.179,0.102-0.396,0.118-0.556-0.01C25.878,62.155,25.449,62,25,62c-0.966,0-1.792,0.691-1.963,1.644 c-0.048,0.267-0.296,0.446-0.569,0.405C22.314,64.025,22.16,64,22,64c-1.654,0-3,1.346-3,3s1.346,3,3,3h4.5 c0.276,0,0.5,0.224,0.5,0.5S26.776,71,26.5,71H22c-2.206,0-4-1.794-4-4s1.794-4,4-4c0.059,0,0.116,0.002,0.174,0.006 C22.588,61.82,23.711,61,25,61c0.349,0,0.689,0.061,1.011,0.18C26.176,58.847,28.126,57,30.5,57c1.831,0,3.466,1.127,4.153,2.774 C35.333,59.276,36.155,59,37,59c2.206,0,4,1.794,4,4c0,0.048-0.001,0.095-0.004,0.142C42.739,63.59,44,65.169,44,67 C44,69.206,42.206,71,40,71z"/><path fill="#472b29" d="M34.5,70c-0.159,0-3.841,0-4,0c-0.276,0-0.5,0.224-0.5,0.5c0,0.276,0.224,0.5,0.5,0.5 c0.159,0,3.841,0,4,0c0.276,0,0.5-0.224,0.5-0.5C35,70.224,34.776,70,34.5,70z"/></g><g><path fill="#edf7f5" d="M58.086,27L58.086,27L70,38.914V69c0,2.206-1.794,4-4,4H38c-2.206,0-4-1.794-4-4V31 c0-2.206,1.794-4,4-4H58.086"/><path fill="#85cfcc" d="M57.375,26.5v8.127c0,2.761,2.237,4.999,4.998,5L70.5,39.63L57.375,26.5z"/><path fill="#472b29" d="M57.42,27.4L69.6,39.58V69c0,1.985-1.615,3.6-3.6,3.6H38c-1.985,0-3.6-1.615-3.6-3.6V31 c0-1.985,1.615-3.6,3.6-3.6H57.42 M57.586,26H38c-2.761,0-5,2.239-5,5v38c0,2.761,2.239,5,5,5h28c2.761,0,5-2.239,5-5V39.414 c0-0.265-0.105-0.52-0.293-0.707L58.293,26.293C58.105,26.105,57.851,26,57.586,26L57.586,26z"/><path fill="#472b29" d="M57.75 35v-8H57v8c0 2.761 2.239 5 5 5h8v-.75h-8C59.656 39.25 57.75 37.343 57.75 35zM66.625 55c-.207 0-.375-.168-.375-.375v-3.25c0-.207.168-.375.375-.375S67 51.168 67 51.375v3.25C67 54.832 66.832 55 66.625 55zM66.625 50c-.207 0-.375-.168-.375-.375v-2.25c0-.207.168-.375.375-.375S67 47.168 67 47.375v2.25C67 49.832 66.832 50 66.625 50zM63.625 70h-23.25C38.514 70 37 68.486 37 66.625v-32.25c0-.825.311-1.624.875-2.251.137-.154.374-.166.529-.028.154.139.166.375.027.53-.439.489-.682 1.11-.682 1.749v32.25c0 1.447 1.178 2.625 2.625 2.625h23.25c1.447 0 2.625-1.178 2.625-2.625v-10.25c0-.207.168-.375.375-.375S67 56.168 67 56.375v10.25C67 68.486 65.486 70 63.625 70z"/></g><g><path fill="#bd977c" d="M46.53 56.47L44.061 54l2.47-2.47c.292-.292.292-.768 0-1.061-.146-.146-.338-.219-.53-.219s-.384.073-.53.219l-3 3c-.292.292-.292.768 0 1.061l3 3c.283.283.777.283 1.061 0C46.822 57.238 46.822 56.762 46.53 56.47zM61.53 53.47l-3-3c-.146-.146-.338-.219-.53-.219s-.384.073-.53.219c-.292.292-.292.768 0 1.061l2.47 2.47-2.47 2.47c-.292.292-.292.768 0 1.061.283.283.777.283 1.061 0l3-3C61.822 54.238 61.822 53.762 61.53 53.47zM49.682 61.314l6-13c.172-.375.008-.822-.367-.995-.102-.047-.208-.069-.313-.069-.284 0-.557.162-.684.436l-6 13c-.172.375-.008.822.367.995C49.051 61.849 49.513 61.678 49.682 61.314z"/><path fill="#472b29" d="M46 50.5c.133 0 .259.052.354.147C46.448 50.741 46.5 50.867 46.5 51c0 .133-.052.259-.146.353l-2.293 2.293L43.707 54l.354.354 2.293 2.293C46.448 56.741 46.5 56.867 46.5 57c0 .133-.052.259-.146.353C46.259 57.448 46.133 57.5 46 57.5s-.259-.052-.354-.147l-3-3C42.552 54.259 42.5 54.133 42.5 54c0-.133.052-.259.147-.353l3-3C45.741 50.552 45.867 50.5 46 50.5M46 50c-.256 0-.512.098-.707.293l-3 3c-.391.391-.391 1.023 0 1.414l3 3C45.488 57.902 45.744 58 46 58s.512-.098.707-.293c.391-.391.391-1.023 0-1.414L44.414 54l2.293-2.293c.391-.391.391-1.023 0-1.414C46.512 50.098 46.256 50 46 50L46 50zM58 50.5c.133 0 .259.052.354.147l3 3C61.448 53.741 61.5 53.867 61.5 54c0 .133-.052.259-.146.353l-3 3C58.259 57.448 58.133 57.5 58 57.5s-.259-.052-.354-.147C57.552 57.259 57.5 57.133 57.5 57c0-.133.052-.259.146-.353l2.293-2.293L60.293 54l-.354-.354-2.293-2.293C57.552 51.259 57.5 51.133 57.5 51c0-.133.052-.259.146-.353C57.741 50.552 57.867 50.5 58 50.5M58 50c-.256 0-.512.098-.707.293-.391.391-.391 1.023 0 1.414L59.586 54l-2.293 2.293c-.391.391-.391 1.023 0 1.414C57.488 57.902 57.744 58 58 58s.512-.098.707-.293l3-3c.391-.391.391-1.023 0-1.414l-3-3C58.512 50.098 58.256 50 58 50L58 50zM55.001 47.5L55.001 47.5c.072 0 .142.016.209.046.25.116.36.413.245.664l-6 13C49.373 61.386 49.194 61.5 49 61.5c-.073 0-.143-.015-.209-.046-.25-.116-.36-.413-.245-.664l6-13C54.627 47.614 54.806 47.5 55.001 47.5M55.001 47c-.378 0-.74.215-.909.581l-6 13c-.231.501-.012 1.096.489 1.327C48.717 61.971 48.859 62 49 62c.378 0 .74-.215.909-.581l6-13c.231-.501.012-1.096-.489-1.327C55.283 47.029 55.141 47 55.001 47L55.001 47z"/></g></svg>